<svg id="svg" version="1.1" xmlns="http://www.w3.org/2000/svg" xmlns:xlink="http://www.w3.org/1999/xlink" width="400" height="400" viewBox="0, 0, 400,400"><g id="svgg"><path id="path0" d="M192.383 100.071 C 134.213 103.939,91.708 158.059,101.244 216.113 L 101.677 218.750 102.987 218.750 C 104.507 218.750,104.476 218.958,103.677 214.063 C 92.628 146.431,157.184 88.168,224.219 105.271 C 228.268 106.304,228.346 106.300,228.441 105.054 C 228.533 103.835,228.949 104.029,223.047 102.525 C 218.371 101.334,211.966 100.399,205.859 100.016 C 199.332 99.607,199.363 99.607,192.383 100.071 M213.056 134.134 C 208.948 135.465,203.816 138.288,204.346 138.926 C 204.577 139.204,206.024 141.787,207.563 144.665 L 210.361 149.899 211.724 148.952 C 212.473 148.431,214.360 147.387,215.918 146.631 C 217.476 145.876,218.750 145.172,218.750 145.067 C 218.750 144.962,218.574 144.984,218.359 145.117 C 217.657 145.552,217.950 144.669,218.749 143.947 C 219.340 143.411,219.424 143.115,219.095 142.719 C 218.768 142.324,218.813 142.139,219.280 141.960 C 219.619 141.829,220.206 140.685,220.582 139.416 C 220.959 138.147,221.414 137.109,221.594 137.109 C 221.774 137.109,221.831 136.964,221.721 136.785 C 221.611 136.607,221.903 136.490,222.370 136.524 C 223.904 136.637,225.391 140.729,225.391 144.836 C 225.391 146.284,227.078 148.402,227.582 147.586 C 227.752 147.312,227.887 145.677,227.883 143.954 C 227.862 135.168,221.949 131.252,213.056 134.134 M185.938 136.475 C 185.938 136.555,187.933 140.291,190.372 144.775 C 194.398 152.179,204.297 171.021,204.297 171.280 C 204.297 171.339,200.649 171.481,196.191 171.595 C 167.723 172.326,154.757 189.388,170.525 205.370 C 174.010 208.902,175.043 209.449,173.829 207.120 C 170.543 200.816,173.594 191.618,180.273 187.688 C 183.734 185.651,194.583 184.040,200.607 184.668 C 202.161 184.830,202.254 184.766,205.537 181.316 C 209.308 177.355,216.902 168.050,216.720 167.615 C 216.655 167.459,213.613 161.629,209.961 154.661 C 200.844 137.268,199.842 136.328,190.415 136.328 C 187.952 136.328,185.938 136.394,185.938 136.475 M187.423 152.423 C 181.474 159.141,176.582 165.413,172.130 172.025 C 169.151 176.451,168.944 177.069,170.996 175.426 C 174.341 172.748,181.512 170.131,186.812 169.655 L 189.444 169.419 191.074 167.229 C 191.970 166.024,193.481 164.115,194.431 162.985 L 196.160 160.931 193.811 156.497 C 192.519 154.059,191.121 151.503,190.704 150.818 L 189.947 149.572 187.423 152.423 M223.605 187.619 C 222.342 189.165,220.447 191.349,219.393 192.474 C 217.519 194.474,217.488 194.545,217.981 195.794 C 218.889 198.095,218.626 198.266,224.414 191.597 C 227.499 188.044,227.559 187.899,226.666 186.232 L 225.902 184.808 223.605 187.619 M192.775 195.552 C 186.246 199.683,181.114 200.234,177.263 197.218 L 175.814 196.083 175.364 197.749 C 172.543 208.178,181.270 214.575,192.383 210.225 C 196.618 208.567,202.968 204.464,202.386 203.762 C 202.152 203.479,202.055 203.153,202.171 203.037 C 202.401 202.808,201.231 200.978,199.281 198.516 C 198.602 197.659,198.046 196.807,198.045 196.623 C 198.043 196.321,195.771 193.700,195.586 193.787 C 195.543 193.807,194.278 194.601,192.775 195.552 M132.324 224.097 C 131.430 224.331,131.460 224.699,132.422 225.300 C 133.678 226.084,133.364 226.985,125.839 244.189 C 122.119 252.693,122.283 251.953,124.121 251.953 L 125.586 251.952 127.100 247.949 C 129.136 242.563,128.511 242.969,134.783 242.969 L 140.174 242.969 140.650 244.434 C 142.464 250.017,144.558 252.344,147.771 252.344 C 149.542 252.344,149.730 252.048,148.795 250.735 C 147.533 248.962,144.857 243.053,141.034 233.594 C 136.923 223.422,136.533 222.997,132.324 224.097 M137.020 235.067 C 138.153 238.017,139.076 240.562,139.071 240.723 C 139.066 240.884,137.022 241.016,134.529 241.016 C 130.372 241.016,130.016 240.959,130.254 240.332 C 131.775 236.328,134.579 229.689,134.747 229.696 C 134.865 229.701,135.888 232.118,137.020 235.067 M160.352 232.766 C 159.492 233.161,158.454 233.860,158.045 234.320 C 157.078 235.407,156.641 235.378,156.641 234.228 C 156.641 232.737,155.734 232.285,153.257 232.541 C 151.140 232.759,149.665 233.495,150.628 233.852 C 152.519 234.553,152.532 234.617,152.665 243.523 L 152.790 251.953 154.715 251.953 L 156.641 251.953 156.641 245.469 C 156.641 237.019,157.519 235.156,161.505 235.156 C 165.395 235.156,166.016 236.563,166.016 245.371 L 166.016 251.953 168.164 251.953 L 170.313 251.953 170.313 244.928 L 170.313 237.903 171.387 236.704 C 173.378 234.481,176.972 234.550,178.674 236.844 C 179.420 237.848,179.504 238.567,179.621 244.949 L 179.751 251.953 181.701 251.953 L 183.651 251.953 183.525 243.973 C 183.409 236.633,183.334 235.906,182.593 234.915 C 179.905 231.318,174.463 231.064,171.184 234.383 L 169.740 235.845 169.042 234.697 C 167.595 232.318,163.370 231.380,160.352 232.766 M193.945 232.371 C 191.380 233.040,189.844 234.497,189.844 236.260 L 189.844 237.190 191.194 236.004 C 194.562 233.048,199.805 234.229,200.513 238.104 C 200.824 239.810,200.532 240.035,197.266 240.602 C 191.296 241.639,188.679 243.263,188.113 246.283 C 187.101 251.678,195.518 254.550,199.602 250.204 L 200.493 249.255 201.333 250.506 C 202.211 251.814,203.774 252.267,205.718 251.779 C 206.841 251.497,206.932 250.558,205.864 250.279 C 204.610 249.951,204.297 248.342,204.297 242.220 C 204.297 233.634,201.026 230.523,193.945 232.371 M210.059 232.892 C 208.650 233.266,208.032 233.984,209.119 233.984 C 210.735 233.984,210.938 235.065,210.938 243.683 L 210.938 251.953 212.891 251.953 L 214.844 251.953 214.845 245.215 C 214.847 236.753,215.383 235.556,219.531 234.744 L 220.898 234.476 219.597 234.175 C 218.680 233.963,218.450 233.777,218.816 233.545 C 219.183 233.312,219.062 233.213,218.405 233.209 C 217.839 233.205,216.960 233.749,216.159 234.598 L 214.844 235.993 214.844 234.854 C 214.844 232.697,213.251 232.044,210.059 232.892 M200.391 244.658 C 200.391 249.215,195.985 251.880,193.146 249.041 C 190.704 246.599,192.654 243.283,197.155 242.223 C 200.395 241.460,200.391 241.457,200.391 244.658 M127.174 269.290 C 137.934 282.163,165.077 296.653,181.338 298.205 L 183.184 298.381 182.563 297.433 C 182.064 296.672,182.047 296.480,182.475 296.462 C 182.768 296.449,180.371 295.765,177.148 294.940 C 159.968 290.547,144.603 282.253,133.166 271.200 C 129.519 267.675,129.369 267.578,127.580 267.578 L 125.742 267.578 127.174 269.290 " stroke="none" fill="#4d3d80" fill-rule="evenodd"></path><path id="path1" d="M0.000 200.000 L 0.000 400.000 200.000 400.000 L 400.000 400.000 400.000 200.000 L 400.000 0.000 200.000 0.000 L 0.000 0.000 0.000 200.000 M214.569 100.557 C 270.878 109.705,307.290 159.512,298.762 215.723 L 298.302 218.750 296.759 218.750 C 295.224 218.750,295.216 218.743,295.476 217.480 C 302.395 183.787,288.765 146.455,261.523 124.488 C 205.951 79.676,123.038 107.174,105.684 176.172 C 102.481 188.907,101.951 207.512,104.503 217.676 C 104.764 218.716,104.722 218.750,103.175 218.750 C 101.387 218.750,101.474 218.906,100.788 214.453 C 92.607 161.384,128.620 111.054,181.836 101.185 C 190.894 99.505,206.280 99.210,214.569 100.557 M222.383 133.441 C 226.026 135.274,228.125 139.031,228.125 143.716 C 228.125 148.262,227.552 149.867,226.642 147.870 C 225.090 144.464,218.626 144.899,212.561 148.819 L 210.196 150.348 207.778 145.584 C 206.447 142.964,205.016 140.331,204.596 139.732 C 202.393 136.590,217.806 131.139,222.383 133.441 M233.380 139.491 C 242.540 149.201,241.513 159.217,229.660 175.781 C 207.032 207.401,182.514 221.054,175.644 205.859 C 174.708 203.789,174.566 199.470,175.357 197.132 L 175.865 195.632 177.093 196.815 C 183.775 203.259,198.921 194.023,215.456 173.420 C 228.306 157.409,232.904 145.318,229.079 137.600 L 227.885 135.191 229.416 136.051 C 230.258 136.525,232.042 138.072,233.380 139.491 M197.733 137.193 C 201.601 138.976,202.769 140.555,208.942 152.347 C 212.034 158.253,215.066 164.040,215.680 165.206 C 216.294 166.372,216.797 167.537,216.797 167.796 C 216.797 168.467,211.364 175.239,206.788 180.273 L 202.881 184.570 196.265 184.831 C 185.692 185.248,180.918 186.623,177.225 190.316 C 172.440 195.101,171.297 203.357,174.731 208.338 L 175.497 209.450 174.175 208.775 C 168.210 205.729,163.037 195.947,164.062 189.653 C 165.994 177.782,178.756 171.101,199.512 171.095 C 201.929 171.094,203.906 171.034,203.906 170.961 C 203.906 170.681,194.993 153.703,190.378 145.192 C 187.721 140.292,185.547 136.185,185.547 136.064 C 185.547 135.289,195.630 136.223,197.733 137.193 M193.716 155.957 C 195.060 158.482,196.100 160.715,196.029 160.920 C 195.957 161.125,194.492 163.121,192.773 165.356 L 189.648 169.420 187.240 169.678 C 181.618 170.282,175.125 172.652,171.022 175.600 C 169.987 176.343,169.141 176.799,169.141 176.612 C 169.141 175.068,180.457 159.933,187.644 151.867 L 189.983 149.241 190.628 150.304 C 190.983 150.889,192.372 153.433,193.716 155.957 M232.856 197.438 C 235.518 202.581,237.761 206.953,237.841 207.152 C 237.928 207.370,235.892 207.448,232.763 207.348 C 224.866 207.095,222.656 205.658,218.930 198.352 L 217.014 194.595 218.964 192.512 C 220.036 191.367,222.039 189.060,223.414 187.385 L 225.915 184.341 226.965 186.213 C 227.543 187.243,230.194 192.294,232.856 197.438 M283.011 223.587 C 283.710 224.098,283.750 224.860,283.769 238.039 L 283.789 251.952 281.521 251.953 L 279.253 251.953 279.329 239.308 C 279.409 226.025,279.401 225.950,277.860 225.364 C 276.480 224.839,276.923 224.098,278.935 223.567 C 281.282 222.947,282.141 222.951,283.011 223.587 M137.026 224.159 C 137.302 224.334,138.990 228.067,140.778 232.454 C 146.141 245.615,148.333 250.429,149.209 250.971 C 150.542 251.794,149.546 252.433,147.195 252.263 C 144.194 252.046,142.867 250.729,141.169 246.280 L 140.054 243.359 134.571 243.359 L 129.088 243.359 127.582 247.363 C 125.922 251.774,125.462 252.344,123.558 252.344 C 121.955 252.344,121.873 252.850,124.435 246.970 C 132.888 227.575,133.541 225.754,132.227 225.249 C 131.904 225.126,131.641 224.755,131.641 224.426 C 131.641 223.763,136.057 223.544,137.026 224.159 M132.714 234.673 C 131.709 237.195,130.774 239.565,130.636 239.941 C 130.407 240.566,130.755 240.625,134.684 240.625 L 138.983 240.625 137.044 235.645 C 135.978 232.905,134.979 230.535,134.824 230.376 C 134.669 230.218,133.719 232.152,132.714 234.673 M156.250 232.813 C 156.680 233.242,157.031 233.866,157.031 234.198 C 157.031 234.633,157.476 234.445,158.620 233.526 C 161.630 231.107,167.596 231.685,169.126 234.543 L 169.672 235.564 170.871 234.427 C 172.946 232.460,174.425 231.933,177.391 232.100 C 182.849 232.409,183.739 234.086,183.922 244.417 L 184.056 251.920 183.098 252.161 C 182.571 252.293,181.544 252.344,180.816 252.275 L 179.492 252.148 179.284 244.922 C 179.033 236.197,178.598 235.156,175.202 235.156 C 171.180 235.156,170.313 236.985,170.313 245.469 L 170.313 251.953 168.164 251.953 L 166.016 251.953 165.992 246.387 C 165.950 236.312,164.763 234.121,160.102 235.517 C 157.360 236.338,157.034 237.369,157.033 245.215 L 157.031 251.953 155.078 251.953 C 154.004 251.953,152.993 251.954,152.832 251.954 C 152.671 251.955,152.451 248.136,152.344 243.469 L 152.148 234.983 151.172 234.497 C 149.760 233.793,149.970 233.101,151.758 232.562 C 154.071 231.865,155.375 231.938,156.250 232.813 M201.901 233.164 C 204.208 234.810,204.669 236.483,204.679 243.234 C 204.688 249.372,204.943 250.391,206.473 250.391 C 207.419 250.391,207.089 251.560,206.029 251.963 C 203.800 252.810,200.781 251.738,200.781 250.099 C 200.781 249.578,200.634 249.608,199.902 250.277 C 195.313 254.473,187.887 252.515,187.892 247.110 C 187.896 243.311,190.883 241.406,198.974 240.045 L 200.486 239.790 200.267 238.158 C 199.756 234.345,194.009 233.304,190.997 236.477 C 189.379 238.182,188.819 237.124,190.065 234.716 C 191.490 231.960,198.858 230.994,201.901 233.164 M213.729 232.453 C 214.162 232.684,214.759 233.431,215.056 234.113 C 215.352 234.794,215.601 235.128,215.610 234.855 C 215.682 232.521,223.117 231.103,225.800 232.911 C 228.447 234.695,228.696 235.625,228.838 244.238 L 228.965 251.953 226.689 251.952 L 224.414 251.952 224.414 244.949 C 224.414 238.443,224.356 237.869,223.593 236.848 C 222.013 234.732,218.398 234.667,216.347 236.717 L 215.234 237.831 215.234 244.892 L 215.234 251.953 213.281 251.953 C 212.207 251.953,211.196 251.954,211.035 251.954 C 210.874 251.955,210.654 248.131,210.547 243.458 C 210.355 235.109,210.336 234.954,209.473 234.575 C 207.936 233.901,208.391 232.939,210.449 232.510 C 212.995 231.980,212.851 231.982,213.729 232.453 M238.109 232.586 C 238.792 233.086,238.859 233.581,238.782 237.567 C 238.603 246.784,239.426 249.219,242.718 249.219 C 247.133 249.219,247.656 248.197,247.656 239.575 L 247.656 232.422 249.993 232.422 L 252.329 232.422 252.434 241.309 C 252.539 250.191,252.539 250.195,253.418 250.320 C 255.749 250.651,254.009 252.327,251.322 252.338 C 249.845 252.345,248.047 251.020,248.047 249.926 C 248.047 249.218,247.878 249.280,246.554 250.477 C 243.933 252.845,240.576 253.204,237.416 251.456 C 234.983 250.110,234.588 248.783,234.446 241.470 L 234.322 235.089 233.179 234.439 C 231.686 233.590,231.898 233.110,234.013 232.551 C 236.371 231.928,237.220 231.935,238.109 232.586 M271.578 233.438 C 273.840 235.027,274.681 236.650,274.911 239.866 L 275.104 242.560 268.106 242.667 L 261.107 242.773 261.435 244.429 C 262.367 249.137,268.739 251.114,273.060 248.037 C 274.564 246.967,275.134 247.923,273.959 249.542 C 270.349 254.517,260.371 253.012,257.569 247.070 C 253.176 237.754,263.468 227.738,271.578 233.438 M264.175 234.621 C 262.791 235.303,261.328 237.850,261.328 239.576 L 261.328 240.625 264.795 240.625 C 269.865 240.625,270.703 240.395,270.703 239.001 C 270.703 235.172,267.464 232.999,264.175 234.621 M197.144 242.536 C 193.892 243.384,192.422 244.664,192.422 246.650 C 192.422 249.859,196.486 250.858,199.063 248.281 C 200.336 247.007,201.181 241.736,200.098 241.819 C 199.937 241.832,198.607 242.154,197.144 242.536 M132.389 270.151 C 154.732 292.917,192.517 302.730,224.805 294.152 C 240.898 289.876,254.159 282.586,266.807 271.061 C 270.223 267.948,270.678 267.659,272.373 267.524 C 274.810 267.330,274.786 267.387,270.676 271.469 C 232.016 309.873,168.905 309.987,129.395 271.725 C 124.754 267.231,124.734 267.186,127.441 267.193 C 129.476 267.199,129.514 267.222,132.389 270.151 " stroke="none" fill="#fbfbfb" fill-rule="evenodd"></path><path id="path2" d="M228.516 104.602 C 228.516 104.993,228.308 105.521,228.053 105.775 C 227.480 106.348,227.192 106.196,231.836 107.763 C 248.964 113.539,264.579 124.596,276.623 139.475 C 278.178 141.397,279.636 142.966,279.862 142.963 C 280.131 142.959,280.124 142.857,279.840 142.670 C 279.602 142.512,279.455 142.075,279.513 141.699 C 279.571 141.323,279.429 141.016,279.197 141.016 C 278.966 141.016,278.878 140.913,279.003 140.789 C 279.128 140.664,279.597 140.758,280.045 140.998 C 281.345 141.694,281.027 141.045,278.235 137.305 C 268.688 124.518,252.029 112.419,235.352 106.157 C 229.190 103.844,228.516 103.690,228.516 104.602 M218.072 133.093 C 218.666 133.183,219.544 133.180,220.025 133.087 C 220.505 132.995,220.020 132.921,218.945 132.924 C 217.871 132.927,217.478 133.003,218.072 133.093 M221.721 136.785 C 221.831 136.964,221.774 137.109,221.594 137.109 C 221.414 137.109,220.959 138.147,220.582 139.416 C 220.198 140.709,219.617 141.830,219.258 141.968 C 218.774 142.154,218.729 142.322,219.073 142.666 C 219.416 143.010,219.320 143.338,218.674 144.026 C 217.668 145.097,218.239 146.217,219.414 145.476 C 220.049 145.075,223.293 145.337,224.707 145.904 C 225.541 146.237,225.615 144.907,224.970 141.201 C 224.464 138.298,223.525 136.609,222.370 136.524 C 221.903 136.490,221.611 136.607,221.721 136.785 M220.981 166.526 C 219.669 169.947,204.585 186.329,197.114 192.448 L 195.603 193.686 196.823 194.987 C 197.494 195.703,198.044 196.440,198.045 196.623 C 198.046 196.807,198.602 197.659,199.281 198.516 C 201.335 201.109,202.368 202.770,202.149 203.125 C 202.034 203.310,202.122 203.574,202.344 203.711 C 202.566 203.848,202.622 204.162,202.469 204.409 C 201.634 205.761,208.019 200.188,213.115 195.117 C 219.829 188.437,229.419 176.796,226.953 178.320 C 226.738 178.453,226.563 178.296,226.563 177.971 C 226.563 177.065,225.706 175.391,225.354 175.609 C 225.182 175.715,225.116 175.410,225.209 174.931 C 225.301 174.452,225.215 173.961,225.018 173.839 C 224.821 173.718,224.599 173.182,224.523 172.649 C 224.448 172.116,224.096 171.240,223.743 170.703 C 223.389 170.166,223.044 169.463,222.976 169.141 C 222.908 168.818,222.536 168.319,222.149 168.031 C 221.644 167.654,221.561 167.371,221.853 167.019 C 222.076 166.750,222.143 166.414,222.002 166.273 C 221.599 165.869,221.195 165.970,220.981 166.526 M226.929 188.451 C 226.342 189.388,223.744 192.445,220.634 195.861 L 218.806 197.868 220.021 200.132 C 222.912 205.519,225.196 206.788,232.324 206.964 C 235.171 207.034,237.500 207.014,237.500 206.920 C 237.500 205.329,227.405 187.692,226.929 188.451 M218.945 232.603 C 218.018 233.028,217.937 233.148,218.555 233.177 C 219.135 233.205,219.202 233.300,218.816 233.545 C 218.449 233.777,218.679 233.965,219.597 234.182 L 220.898 234.490 219.531 234.771 C 218.206 235.045,218.222 235.055,220.033 235.105 C 224.062 235.216,224.609 236.444,224.609 245.371 L 224.609 251.953 226.812 251.953 L 229.015 251.953 228.824 244.434 C 228.656 237.770,228.540 236.730,227.807 235.295 C 226.378 232.500,222.045 231.184,218.945 232.603 M234.570 232.614 C 234.355 232.686,233.696 232.851,233.105 232.981 C 231.893 233.249,231.643 233.984,232.765 233.984 C 234.085 233.984,234.294 234.883,234.446 241.211 C 234.567 246.274,234.732 247.741,235.314 248.933 C 237.217 252.828,243.021 253.550,246.670 250.347 L 247.961 249.213 248.213 250.218 C 248.473 251.254,250.634 252.490,251.638 252.177 C 251.919 252.090,252.632 251.912,253.223 251.783 C 253.813 251.654,254.297 251.293,254.297 250.981 C 254.297 250.657,254.064 250.505,253.751 250.624 C 252.280 251.189,251.953 249.393,251.953 240.733 L 251.953 232.422 250.024 232.422 L 248.095 232.422 247.973 239.618 C 247.836 247.737,247.660 248.235,244.599 249.152 C 239.991 250.533,238.675 248.462,238.673 239.824 C 238.672 232.375,238.131 231.426,234.570 232.614 M261.873 233.942 C 261.900 234.332,261.529 234.532,260.749 234.547 C 256.819 234.625,255.445 244.222,258.743 248.547 C 260.506 250.858,265.005 253.174,264.334 251.426 C 264.198 251.071,264.237 250.781,264.420 250.781 C 264.603 250.781,264.837 250.459,264.940 250.066 C 265.091 249.487,264.915 249.363,264.013 249.417 C 263.163 249.468,262.995 249.368,263.304 248.996 C 263.597 248.643,263.490 248.355,262.917 247.953 C 261.937 247.267,260.938 244.953,260.938 243.372 L 260.938 242.188 265.257 242.188 C 268.038 242.188,269.491 242.048,269.336 241.797 C 269.203 241.582,269.281 241.406,269.508 241.406 C 269.736 241.406,269.922 241.230,269.922 241.016 C 269.922 240.778,268.147 240.625,265.379 240.625 L 260.835 240.625 261.050 239.355 C 261.169 238.657,261.576 237.383,261.955 236.523 C 262.335 235.664,262.606 234.811,262.559 234.627 C 262.511 234.443,262.668 234.058,262.906 233.770 C 263.245 233.363,263.174 233.260,262.586 233.304 C 262.171 233.335,261.850 233.623,261.873 233.942 M204.403 240.234 C 204.403 241.201,204.479 241.597,204.573 241.113 C 204.666 240.630,204.666 239.839,204.573 239.355 C 204.479 238.872,204.403 239.268,204.403 240.234 M265.430 241.406 C 265.575 241.642,265.051 241.797,264.109 241.797 C 263.249 241.797,262.437 241.621,262.305 241.406 C 262.159 241.171,262.684 241.016,263.626 241.016 C 264.485 241.016,265.297 241.191,265.430 241.406 M241.992 288.122 C 226.282 295.718,204.175 299.205,187.408 296.733 C 182.436 296.000,181.706 296.126,182.644 297.556 C 182.996 298.094,183.102 298.421,182.880 298.284 C 182.658 298.147,182.365 298.213,182.231 298.431 C 182.095 298.651,182.344 298.828,182.789 298.828 C 183.232 298.828,183.594 298.619,183.594 298.363 C 183.594 298.086,183.792 298.150,184.082 298.519 C 185.244 300.000,203.795 300.569,212.773 299.400 C 222.980 298.070,234.105 294.823,242.752 290.651 C 247.993 288.122,247.990 288.124,246.964 286.870 L 246.289 286.044 241.992 288.122 " stroke="none" fill="#ae596a" fill-rule="evenodd"></path><path id="path3" d="M229.162 137.598 C 232.103 143.343,229.676 153.204,222.777 163.547 C 221.484 165.486,221.284 166.005,221.760 166.188 C 222.221 166.365,222.252 166.538,221.900 166.962 C 221.547 167.388,221.601 167.623,222.149 168.031 C 222.536 168.319,222.908 168.818,222.976 169.141 C 223.044 169.463,223.389 170.166,223.743 170.703 C 224.096 171.240,224.448 172.116,224.523 172.649 C 224.599 173.182,224.821 173.718,225.018 173.839 C 225.215 173.961,225.301 174.452,225.209 174.931 C 225.116 175.410,225.182 175.715,225.354 175.609 C 225.695 175.398,226.563 177.053,226.563 177.914 C 226.563 180.708,234.444 169.610,237.415 162.632 C 241.642 152.703,238.853 142.622,230.241 136.697 C 228.008 135.160,227.942 135.215,229.162 137.598 M280.391 140.313 C 281.140 141.062,280.933 141.473,280.045 140.998 C 279.597 140.758,279.128 140.664,279.003 140.789 C 278.878 140.913,278.966 141.016,279.197 141.016 C 279.641 141.016,279.634 141.981,279.186 142.428 C 279.042 142.573,279.510 143.501,280.226 144.490 C 294.286 163.893,300.358 193.056,295.464 217.676 C 295.260 218.701,295.321 218.750,296.774 218.750 L 298.297 218.750 298.759 215.783 C 302.633 190.863,297.147 165.034,283.647 144.629 C 281.905 141.997,280.355 139.844,280.201 139.844 C 280.048 139.844,280.133 140.055,280.391 140.313 M279.199 223.526 C 277.164 223.950,276.818 224.635,278.299 225.310 C 279.663 225.931,279.739 226.796,279.608 240.137 L 279.492 251.954 281.543 251.953 L 283.594 251.953 283.682 239.746 C 283.815 221.232,284.163 222.491,279.199 223.526 M263.184 232.461 C 262.593 232.690,262.109 233.033,262.109 233.223 C 262.109 233.414,262.417 233.454,262.793 233.313 C 263.385 233.091,263.407 233.143,262.955 233.699 C 262.668 234.052,262.539 234.512,262.668 234.722 C 262.797 234.931,262.725 235.213,262.506 235.348 C 262.288 235.483,262.115 235.802,262.121 236.058 C 262.128 236.314,262.312 236.216,262.531 235.840 C 263.520 234.143,267.009 233.434,268.665 234.594 C 270.722 236.035,271.405 239.729,269.862 241.067 C 269.400 241.469,269.180 241.820,269.374 241.848 C 269.568 241.877,269.111 242.029,268.359 242.188 C 267.359 242.398,267.936 242.487,270.508 242.521 C 274.979 242.579,275.177 242.453,274.897 239.737 C 274.310 234.053,268.458 230.418,263.184 232.461 M261.328 233.539 C 261.328 233.809,261.164 233.929,260.964 233.806 C 260.764 233.682,260.503 233.740,260.383 233.934 C 260.263 234.128,260.514 234.378,260.942 234.489 C 261.864 234.730,262.379 234.098,261.763 233.482 C 261.444 233.162,261.328 233.178,261.328 233.539 M262.305 241.406 C 262.437 241.621,263.249 241.797,264.109 241.797 C 265.051 241.797,265.575 241.642,265.430 241.406 C 265.297 241.191,264.485 241.016,263.626 241.016 C 262.684 241.016,262.159 241.171,262.305 241.406 M261.330 245.436 C 261.327 246.048,262.239 247.465,262.971 247.984 C 263.471 248.339,263.588 248.654,263.333 248.961 C 263.067 249.282,263.233 249.431,263.901 249.470 C 265.102 249.542,265.088 249.328,263.823 248.333 C 263.262 247.892,262.471 246.987,262.067 246.324 C 261.662 245.660,261.330 245.261,261.330 245.436 M273.504 247.766 C 272.560 248.914,269.726 249.722,267.340 249.524 C 265.432 249.366,265.104 249.440,264.941 250.061 C 264.837 250.457,264.635 250.781,264.491 250.781 C 264.348 250.781,264.230 251.153,264.230 251.608 C 264.230 252.392,264.381 252.425,267.174 252.258 C 271.597 251.994,274.405 250.361,274.149 248.200 C 274.037 247.253,273.966 247.205,273.504 247.766 M272.318 267.505 C 270.761 267.617,270.213 267.991,266.017 271.810 C 261.079 276.304,254.384 281.264,249.522 284.027 C 247.346 285.264,246.570 285.906,246.737 286.328 C 246.864 286.650,246.976 287.126,246.987 287.385 C 246.997 287.644,247.137 287.775,247.297 287.676 C 247.458 287.576,247.651 287.680,247.726 287.906 C 248.301 289.631,266.278 276.287,272.619 269.428 C 274.585 267.302,274.591 267.342,272.318 267.505 " stroke="none" fill="#e09c4c" fill-rule="evenodd"></path><path id="path4" d="M193.659 99.892 C 194.361 99.979,195.416 99.978,196.003 99.888 C 196.590 99.799,196.016 99.728,194.727 99.730 C 193.438 99.733,192.957 99.806,193.659 99.892 M203.800 99.891 C 204.493 99.978,205.724 99.979,206.534 99.894 C 207.345 99.810,206.777 99.739,205.273 99.738 C 203.770 99.736,203.106 99.805,203.800 99.891 M188.770 100.269 C 189.146 100.368,189.761 100.368,190.137 100.269 C 190.513 100.171,190.205 100.091,189.453 100.091 C 188.701 100.091,188.394 100.171,188.770 100.269 M196.991 102.634 C 198.665 102.708,201.302 102.707,202.850 102.633 C 204.398 102.559,203.027 102.499,199.805 102.500 C 196.582 102.501,195.316 102.561,196.991 102.634 M190.332 103.004 C 190.708 103.102,191.323 103.102,191.699 103.004 C 192.075 102.905,191.768 102.825,191.016 102.825 C 190.264 102.825,189.956 102.905,190.332 103.004 M208.301 103.004 C 208.677 103.102,209.292 103.102,209.668 103.004 C 210.044 102.905,209.736 102.825,208.984 102.825 C 208.232 102.825,207.925 102.905,208.301 103.004 M133.774 128.223 L 131.836 130.273 133.887 128.335 C 135.015 127.269,135.938 126.346,135.938 126.284 C 135.938 125.993,135.576 126.317,133.774 128.223 M128.310 129.395 L 125.586 132.227 128.418 129.503 C 131.048 126.973,131.428 126.563,131.142 126.563 C 131.082 126.563,129.808 127.837,128.310 129.395 M270.687 128.613 C 271.645 129.634,272.480 130.469,272.542 130.469 C 272.836 130.469,272.525 130.118,270.801 128.499 L 268.945 126.758 270.687 128.613 M268.945 131.250 C 270.654 132.969,272.140 134.375,272.247 134.375 C 272.355 134.375,271.045 132.969,269.336 131.250 C 267.627 129.531,266.141 128.125,266.034 128.125 C 265.927 128.125,267.237 129.531,268.945 131.250 M128.906 133.008 C 127.957 133.975,127.269 134.766,127.376 134.766 C 127.484 134.766,128.348 133.975,129.297 133.008 C 130.246 132.041,130.934 131.250,130.827 131.250 C 130.719 131.250,129.855 132.041,128.906 133.008 M185.546 136.230 C 185.545 136.392,186.908 136.476,188.573 136.417 C 193.924 136.230,194.452 136.071,189.941 136.003 C 187.524 135.967,185.546 136.069,185.546 136.230 M207.813 150.781 C 208.251 151.641,208.698 152.344,208.805 152.344 C 208.912 152.344,208.642 151.641,208.203 150.781 C 207.765 149.922,207.318 149.219,207.211 149.219 C 207.103 149.219,207.374 149.922,207.813 150.781 M198.633 171.094 L 193.164 171.323 198.730 171.404 C 202.235 171.454,204.297 171.340,204.297 171.094 C 204.297 170.879,204.253 170.739,204.199 170.784 C 204.146 170.828,201.641 170.968,198.633 171.094 M168.921 180.176 L 167.773 181.445 169.043 180.298 C 170.226 179.229,170.492 178.906,170.190 178.906 C 170.123 178.906,169.552 179.478,168.921 180.176 M204.478 182.520 L 202.539 184.570 204.590 182.632 C 205.718 181.566,206.641 180.643,206.641 180.581 C 206.641 180.290,206.279 180.614,204.478 182.520 M205.264 184.863 L 202.148 188.086 205.371 184.970 C 208.364 182.076,208.772 181.641,208.487 181.641 C 208.428 181.641,206.978 183.091,205.264 184.863 M190.532 185.042 C 191.018 185.135,191.721 185.132,192.094 185.034 C 192.468 184.936,192.070 184.860,191.211 184.864 C 190.352 184.868,190.046 184.948,190.532 185.042 M100.091 191.016 C 100.091 191.768,100.171 192.075,100.269 191.699 C 100.368 191.323,100.368 190.708,100.269 190.332 C 100.171 189.956,100.091 190.264,100.091 191.016 M102.841 193.750 C 102.841 194.717,102.917 195.112,103.010 194.629 C 103.103 194.146,103.103 193.354,103.010 192.871 C 102.917 192.388,102.841 192.783,102.841 193.750 M212.891 195.508 C 211.290 197.119,210.068 198.438,210.176 198.438 C 210.283 198.438,211.681 197.119,213.281 195.508 C 214.882 193.896,216.103 192.578,215.996 192.578 C 215.889 192.578,214.491 193.896,212.891 195.508 M99.746 199.609 C 99.746 201.436,99.813 202.183,99.895 201.270 C 99.978 200.356,99.978 198.862,99.895 197.949 C 99.813 197.036,99.746 197.783,99.746 199.609 M181.744 199.108 C 182.337 199.198,183.216 199.196,183.697 199.103 C 184.177 199.010,183.691 198.937,182.617 198.940 C 181.543 198.943,181.150 199.019,181.744 199.108 M174.708 201.367 C 174.712 202.227,174.792 202.532,174.886 202.046 C 174.979 201.560,174.976 200.857,174.878 200.484 C 174.780 200.110,174.704 200.508,174.708 201.367 M102.846 205.664 C 102.849 206.738,102.925 207.131,103.015 206.538 C 103.104 205.944,103.102 205.065,103.009 204.584 C 102.917 204.104,102.843 204.590,102.846 205.664 M170.296 205.566 C 171.915 207.291,172.266 207.601,172.266 207.308 C 172.266 207.245,171.431 206.410,170.410 205.452 L 168.555 203.711 170.296 205.566 M233.203 207.031 L 228.711 207.266 233.301 207.344 C 236.152 207.392,237.891 207.274,237.891 207.031 C 237.891 206.816,237.847 206.676,237.793 206.719 C 237.739 206.761,235.674 206.902,233.203 207.031 M100.091 208.203 C 100.091 208.955,100.171 209.263,100.269 208.887 C 100.368 208.511,100.368 207.896,100.269 207.520 C 100.171 207.144,100.091 207.451,100.091 208.203 M176.953 208.325 C 176.953 208.393,177.524 208.964,178.223 209.595 L 179.492 210.742 178.345 209.473 C 177.275 208.289,176.953 208.024,176.953 208.325 M183.887 212.001 C 184.585 212.088,185.728 212.088,186.426 212.001 C 187.124 211.915,186.553 211.844,185.156 211.844 C 183.760 211.844,183.188 211.915,183.887 212.001 M279.469 240.820 C 279.469 246.836,279.523 249.242,279.589 246.168 C 279.655 243.093,279.655 238.171,279.589 235.230 C 279.522 232.289,279.468 234.805,279.469 240.820 M153.613 232.301 C 153.989 232.399,154.604 232.399,154.980 232.301 C 155.356 232.202,155.049 232.122,154.297 232.122 C 153.545 232.122,153.237 232.202,153.613 232.301 M247.818 239.258 C 247.818 243.125,247.877 244.654,247.948 242.656 C 248.019 240.658,248.018 237.494,247.947 235.625 C 247.875 233.756,247.817 235.391,247.818 239.258 M252.120 240.820 C 252.120 245.547,252.176 247.427,252.245 244.998 C 252.314 242.569,252.313 238.702,252.244 236.404 C 252.175 234.106,252.119 236.094,252.120 240.820 M157.985 234.010 C 157.295 234.773,157.239 234.778,156.975 234.108 C 156.733 233.494,156.692 233.517,156.668 234.277 C 156.633 235.416,157.067 235.389,158.203 234.180 C 158.708 233.643,159.029 233.203,158.918 233.203 C 158.806 233.203,158.386 233.566,157.985 234.010 M194.824 234.651 C 195.308 234.744,196.099 234.744,196.582 234.651 C 197.065 234.558,196.670 234.481,195.703 234.481 C 194.736 234.481,194.341 234.558,194.824 234.651 M238.793 236.914 C 238.795 238.203,238.868 238.683,238.955 237.981 C 239.042 237.279,239.040 236.225,238.951 235.638 C 238.862 235.051,238.791 235.625,238.793 236.914 M189.506 236.426 C 189.452 237.524,189.967 237.858,190.467 237.049 C 190.633 236.780,190.575 236.704,190.323 236.860 C 190.079 237.010,189.828 236.747,189.730 236.236 C 189.582 235.471,189.552 235.496,189.506 236.426 M210.625 243.629 C 210.582 248.182,210.679 251.989,210.840 252.089 C 211.001 252.189,211.087 249.782,211.032 246.741 C 210.842 236.393,210.704 235.335,210.625 243.629 M152.421 244.020 C 152.379 248.358,152.476 251.989,152.637 252.089 C 152.798 252.189,152.884 249.870,152.828 246.936 C 152.642 237.092,152.500 236.074,152.421 244.020 M228.606 238.672 C 228.606 239.424,228.687 239.731,228.785 239.355 C 228.883 238.979,228.883 238.364,228.785 237.988 C 228.687 237.612,228.606 237.920,228.606 238.672 M183.755 245.117 C 183.756 248.984,183.814 250.514,183.885 248.515 C 183.956 246.517,183.956 243.353,183.884 241.484 C 183.813 239.615,183.755 241.250,183.755 245.117 M215.005 245.117 C 215.006 248.984,215.064 250.514,215.135 248.515 C 215.206 246.517,215.206 243.353,215.134 241.484 C 215.063 239.615,215.005 241.250,215.005 245.117 M156.801 245.313 C 156.801 249.072,156.860 250.610,156.931 248.730 C 157.003 246.851,157.003 243.774,156.931 241.895 C 156.860 240.015,156.801 241.553,156.801 245.313 M179.478 245.605 L 179.492 252.148 181.350 252.184 L 183.208 252.220 181.457 252.066 L 179.706 251.911 179.585 245.486 L 179.463 239.062 179.478 245.605 M130.077 240.723 C 130.078 240.884,132.144 240.986,134.668 240.950 C 139.424 240.882,138.880 240.717,133.300 240.535 C 131.527 240.477,130.077 240.562,130.077 240.723 M204.436 245.117 C 204.434 247.051,204.500 247.891,204.582 246.984 C 204.664 246.078,204.665 244.496,204.584 243.469 C 204.504 242.442,204.437 243.184,204.436 245.117 M262.402 242.474 C 263.315 242.556,264.810 242.556,265.723 242.474 C 266.636 242.391,265.889 242.324,264.063 242.324 C 262.236 242.324,261.489 242.391,262.402 242.474 M131.934 243.259 C 133.491 243.333,136.040 243.333,137.598 243.259 C 139.155 243.185,137.881 243.124,134.766 243.124 C 131.650 243.124,130.376 243.185,131.934 243.259 M199.252 248.196 L 198.309 249.414 199.427 248.352 C 200.042 247.767,200.466 247.219,200.370 247.134 C 200.274 247.048,199.771 247.526,199.252 248.196 M194.829 249.886 C 195.315 249.979,196.018 249.976,196.391 249.878 C 196.765 249.780,196.367 249.704,195.508 249.708 C 194.648 249.712,194.343 249.792,194.829 249.886 M189.539 250.989 C 190.123 251.604,190.671 252.028,190.757 251.932 C 190.843 251.836,190.365 251.333,189.695 250.815 L 188.477 249.872 189.539 250.989 M122.266 252.032 C 122.266 252.203,122.881 252.344,123.633 252.344 C 124.385 252.344,125.000 252.275,125.000 252.191 C 125.000 252.107,124.385 251.967,123.633 251.879 C 122.881 251.791,122.266 251.860,122.266 252.032 M203.423 252.229 C 203.908 252.323,204.612 252.319,204.985 252.222 C 205.358 252.124,204.961 252.047,204.102 252.052 C 203.242 252.056,202.937 252.136,203.423 252.229 M125.391 267.505 C 125.391 267.680,125.962 268.339,126.660 268.970 L 127.930 270.117 126.782 268.848 L 125.635 267.578 127.545 267.578 C 129.155 267.578,129.673 267.777,130.841 268.848 L 132.227 270.117 130.880 268.652 C 129.584 267.242,125.391 266.366,125.391 267.505 M134.570 272.656 C 135.409 273.516,136.184 274.219,136.291 274.219 C 136.399 274.219,135.800 273.516,134.961 272.656 C 134.122 271.797,133.347 271.094,133.240 271.094 C 133.132 271.094,133.731 271.797,134.570 272.656 M131.250 273.633 C 131.979 274.385,132.663 275.000,132.770 275.000 C 132.878 275.000,132.369 274.385,131.641 273.633 C 130.912 272.881,130.228 272.266,130.120 272.266 C 130.013 272.266,130.521 272.881,131.250 273.633 M190.723 297.144 C 191.099 297.243,191.714 297.243,192.090 297.144 C 192.466 297.046,192.158 296.966,191.406 296.966 C 190.654 296.966,190.347 297.046,190.723 297.144 M198.159 297.555 C 199.402 297.632,201.336 297.632,202.456 297.553 C 203.576 297.474,202.559 297.411,200.195 297.412 C 197.832 297.413,196.916 297.477,198.159 297.555 M196.191 300.291 C 198.071 300.362,201.147 300.362,203.027 300.291 C 204.907 300.219,203.369 300.161,199.609 300.161 C 195.850 300.161,194.312 300.219,196.191 300.291 " stroke="none" fill="#a6a1bd" fill-rule="evenodd"></path></g></svg>