<svg id="svg" version="1.1" xmlns="http://www.w3.org/2000/svg" xmlns:xlink="http://www.w3.org/1999/xlink" width="400" height="378.7556904400607" viewBox="0, 0, 400,378.7556904400607"><g id="svgg"><path id="path0" d="M188.447 21.048 C 188.030 21.109,185.814 21.351,183.523 21.585 C 152.105 24.796,122.067 36.769,97.538 55.858 C 48.728 93.843,24.813 153.084,33.919 213.447 C 34.956 220.323,34.723 219.869,37.281 220.002 L 39.497 220.117 39.290 218.486 C 39.177 217.590,38.737 214.470,38.313 211.553 C 35.857 194.665,36.132 174.761,39.028 159.659 C 48.084 112.449,74.866 73.890,116.207 48.541 C 147.252 29.506,188.236 21.069,224.242 26.302 C 226.222 26.590,229.375 27.025,231.250 27.269 C 233.125 27.514,234.915 27.817,235.227 27.942 C 235.540 28.068,236.903 28.379,238.258 28.634 C 239.612 28.889,241.487 29.298,242.424 29.542 C 243.362 29.787,244.406 30.045,244.744 30.114 C 245.083 30.184,245.977 30.412,246.730 30.620 C 248.005 30.972,249.072 30.603,248.014 30.176 C 247.727 30.060,247.801 29.972,248.201 29.954 C 249.006 29.918,249.098 28.788,248.295 28.788 C 247.983 28.788,247.727 28.532,247.727 28.220 C 247.727 27.904,247.391 27.652,246.970 27.652 C 246.553 27.652,246.212 27.470,246.212 27.249 C 246.212 27.022,245.673 26.898,244.981 26.965 C 244.187 27.041,243.515 26.848,243.087 26.420 C 242.723 26.056,242.027 25.758,241.540 25.758 C 241.054 25.758,240.529 25.630,240.374 25.473 C 239.659 24.755,226.365 22.364,217.765 21.407 C 213.225 20.901,191.268 20.633,188.447 21.048 M249.486 29.729 C 249.328 30.141,249.515 30.272,250.183 30.217 C 250.880 30.159,250.999 30.026,250.690 29.654 C 250.158 29.012,249.752 29.038,249.486 29.729 M229.735 77.261 C 227.415 77.642,224.811 78.328,223.295 78.959 C 222.670 79.219,221.562 79.658,220.833 79.935 C 219.482 80.448,212.927 83.775,210.703 85.076 C 209.234 85.936,209.227 85.992,210.356 87.792 C 211.779 90.059,213.226 92.694,217.840 101.420 C 220.038 105.577,219.919 105.491,221.595 104.164 C 222.382 103.540,223.140 103.030,223.281 103.030 C 223.421 103.030,224.078 102.625,224.741 102.130 C 226.189 101.049,230.320 98.866,230.920 98.864 C 231.659 98.863,232.231 97.913,231.771 97.453 C 231.305 96.987,231.684 94.697,232.227 94.697 C 232.419 94.697,232.576 94.189,232.576 93.568 C 232.576 92.668,232.776 92.389,233.559 92.192 C 234.244 92.020,234.395 91.854,234.057 91.645 C 233.664 91.403,233.663 91.235,234.053 90.765 C 234.318 90.446,234.418 89.996,234.276 89.765 C 234.133 89.535,234.304 89.029,234.654 88.642 C 235.005 88.255,235.385 87.243,235.499 86.393 C 235.613 85.544,235.860 84.848,236.048 84.848 C 236.237 84.848,236.218 84.526,236.005 84.129 C 235.717 83.591,235.754 83.358,236.152 83.205 C 236.465 83.085,236.603 82.694,236.489 82.256 C 236.346 81.708,236.474 81.527,236.976 81.570 C 237.384 81.605,237.869 81.195,238.186 80.549 L 238.715 79.468 240.160 80.880 C 242.854 83.511,244.533 88.754,244.765 95.265 C 244.874 98.315,244.981 98.751,245.781 99.398 C 246.274 99.796,246.991 100.639,247.375 101.271 C 247.853 102.056,248.125 102.247,248.236 101.873 C 250.561 94.043,248.785 85.909,243.647 80.852 C 240.178 77.438,235.703 76.283,229.735 77.261 M178.409 82.315 C 178.409 82.421,179.064 83.674,179.864 85.099 C 180.664 86.524,181.912 88.797,182.639 90.152 C 183.365 91.506,184.732 93.977,185.677 95.644 C 187.460 98.791,188.900 101.465,192.613 108.523 C 193.818 110.814,195.693 114.309,196.778 116.288 C 197.863 118.267,199.907 122.102,201.320 124.811 C 202.733 127.519,205.159 132.173,206.712 135.152 C 208.265 138.132,209.449 140.796,209.342 141.073 C 209.189 141.473,206.574 141.618,196.715 141.773 C 172.274 142.157,158.631 146.924,148.718 158.543 C 137.216 172.023,140.998 192.341,157.076 203.451 C 159.122 204.865,159.252 204.833,158.384 203.125 C 155.578 197.610,155.183 189.956,157.382 183.712 C 162.428 169.385,174.931 163.489,199.917 163.654 L 206.952 163.700 210.526 159.786 C 218.691 150.841,230.303 136.482,230.303 135.331 C 230.303 135.033,229.254 132.800,227.973 130.368 C 226.691 127.937,223.863 122.453,221.689 118.182 C 219.515 113.911,217.606 110.246,217.447 110.038 C 217.289 109.830,216.171 107.784,214.963 105.492 C 208.611 93.439,206.950 90.753,204.284 88.215 C 199.176 83.354,196.627 82.508,186.458 82.292 C 182.031 82.198,178.409 82.209,178.409 82.315 M184.848 105.212 C 171.289 120.440,158.597 136.877,152.669 146.888 C 150.748 150.132,150.814 150.446,153.066 148.749 C 160.377 143.237,174.438 138.287,182.885 138.252 C 184.656 138.244,184.701 138.209,186.915 135.038 C 187.933 133.580,190.236 130.597,192.032 128.409 C 193.829 126.222,195.431 124.215,195.593 123.950 C 195.845 123.539,193.878 119.460,190.529 113.447 C 190.181 112.822,189.334 111.288,188.646 110.038 C 187.024 107.089,185.550 104.542,185.475 104.560 C 185.443 104.568,185.161 104.861,184.848 105.212 M243.182 167.299 C 242.244 168.461,241.306 169.603,241.097 169.838 C 240.888 170.073,239.633 171.544,238.309 173.106 C 236.984 174.669,234.871 177.019,233.612 178.328 L 231.323 180.710 232.222 182.629 C 233.204 184.726,234.848 187.135,234.848 186.476 C 234.848 186.024,238.319 181.399,240.491 178.957 C 241.242 178.112,242.348 176.834,242.948 176.116 C 243.549 175.398,245.037 173.786,246.256 172.535 L 248.471 170.259 247.856 169.126 C 247.518 168.502,246.920 167.353,246.528 166.572 C 245.592 164.706,245.209 164.789,243.182 167.299 M192.094 181.827 C 179.867 189.936,169.626 191.026,163.377 184.883 C 161.578 183.113,161.654 183.069,160.780 186.367 C 157.924 197.142,163.270 207.757,172.618 209.870 C 180.223 211.590,193.871 207.265,202.841 200.293 C 205.627 198.127,207.576 196.438,207.576 196.188 C 207.576 195.525,206.738 195.410,206.102 195.986 C 205.062 196.927,204.808 196.714,205.063 195.118 C 205.269 193.832,205.179 193.566,204.354 193.026 C 203.778 192.648,203.409 192.049,203.409 191.491 C 203.409 190.987,203.239 190.470,203.030 190.341 C 202.822 190.212,202.652 189.691,202.652 189.182 C 202.652 188.674,202.515 188.258,202.349 188.258 C 202.182 188.258,201.628 187.580,201.118 186.753 C 200.607 185.925,199.976 185.243,199.716 185.237 C 199.455 185.232,199.242 184.886,199.242 184.470 C 199.242 184.038,198.990 183.712,198.655 183.712 C 198.331 183.712,197.888 183.201,197.671 182.576 C 197.453 181.951,197.035 181.439,196.743 181.439 C 196.429 181.439,196.212 181.052,196.212 180.492 C 196.212 179.175,195.978 179.251,192.094 181.827 M197.348 182.765 C 197.348 183.078,197.178 183.333,196.970 183.333 C 196.761 183.333,196.591 183.078,196.591 182.765 C 196.591 182.453,196.761 182.197,196.970 182.197 C 197.178 182.197,197.348 182.453,197.348 182.765 M88.163 229.472 C 86.464 229.581,85.263 231.061,86.873 231.061 C 89.539 231.061,89.127 233.790,84.992 243.513 C 82.988 248.227,80.542 254.044,79.557 256.439 C 78.572 258.835,77.416 261.563,76.988 262.500 C 75.137 266.559,70.455 277.296,70.455 277.481 C 70.455 277.593,71.675 277.635,73.166 277.573 L 75.878 277.462 77.931 271.970 C 80.511 265.066,81.116 263.565,81.558 262.973 C 81.824 262.617,84.230 262.500,91.301 262.500 L 100.691 262.500 101.702 265.246 C 105.570 275.759,107.646 278.004,113.519 278.022 C 116.850 278.032,117.087 277.724,115.363 275.620 C 113.825 273.743,110.560 267.046,107.177 258.830 C 102.144 246.604,100.758 243.172,98.869 238.258 C 95.327 229.037,95.298 229.014,88.163 229.472 M92.359 241.004 C 93.686 244.536,96.618 252.025,97.514 254.171 C 97.993 255.320,98.506 256.811,98.654 257.486 L 98.924 258.712 91.318 258.712 C 82.149 258.712,82.641 260.019,87.357 248.201 C 91.405 238.056,91.306 238.199,92.359 241.004 M135.795 244.209 C 133.900 244.971,130.795 247.188,130.283 248.143 C 129.697 249.239,128.788 249.044,128.786 247.822 C 128.782 244.314,125.708 243.158,120.437 244.681 C 117.871 245.422,117.397 246.072,118.947 246.724 C 121.910 247.972,121.780 247.218,121.780 263.203 L 121.780 277.462 125.189 277.462 L 128.598 277.462 128.788 265.500 L 128.977 253.538 130.018 252.174 C 133.931 247.047,141.406 247.305,143.891 252.652 C 144.404 253.754,144.539 255.953,144.697 265.720 L 144.886 277.462 148.201 277.572 L 151.515 277.681 151.515 266.349 C 151.515 254.068,151.581 253.603,153.663 251.128 C 157.396 246.693,165.610 248.077,167.038 253.382 C 167.326 254.450,167.508 259.034,167.549 266.251 L 167.614 277.462 170.928 277.572 L 174.242 277.681 174.242 265.523 C 174.242 252.729,174.059 250.913,172.518 248.485 C 168.366 241.941,157.803 241.833,152.413 248.280 C 150.786 250.228,150.534 250.329,150.172 249.187 C 148.816 244.914,140.877 242.165,135.795 244.209 M191.676 244.168 C 187.183 245.375,185.222 247.219,184.946 250.495 L 184.780 252.462 186.181 251.024 C 192.690 244.339,203.030 246.920,203.030 255.230 C 203.030 257.182,202.958 257.222,197.727 258.204 C 185.729 260.456,182.077 263.045,182.053 269.318 C 182.019 278.515,195.263 281.563,202.047 273.919 C 203.012 272.832,203.101 272.867,203.973 274.686 C 205.112 277.063,206.433 277.717,209.791 277.567 C 212.954 277.427,215.331 275.538,212.810 275.168 C 209.672 274.708,209.470 273.978,209.470 263.099 C 209.470 252.268,209.088 249.953,206.852 247.243 C 204.301 244.150,197.141 242.699,191.676 244.168 M220.455 244.675 C 219.934 244.822,218.946 245.080,218.259 245.249 C 216.867 245.591,216.697 246.672,217.997 246.908 C 218.411 246.984,219.134 247.399,219.602 247.831 L 220.455 248.617 220.455 262.945 L 220.455 277.273 223.659 277.273 L 226.863 277.273 226.973 265.436 L 227.083 253.598 228.187 252.083 C 228.794 251.250,230.072 249.898,231.028 249.078 C 231.983 248.258,232.472 247.697,232.114 247.830 C 231.271 248.145,230.863 247.475,231.460 246.755 C 231.849 246.286,231.808 246.238,231.209 246.457 C 230.434 246.740,228.409 248.804,228.409 249.311 C 228.409 249.481,228.068 249.621,227.652 249.621 C 227.010 249.621,226.894 249.369,226.894 247.972 C 226.894 244.867,224.365 243.572,220.455 244.675 M233.300 247.443 C 232.938 248.147,232.949 248.213,233.363 247.822 C 233.638 247.562,234.170 247.348,234.545 247.348 C 234.920 247.348,235.227 247.178,235.227 246.970 C 235.227 246.235,233.733 246.602,233.300 247.443 M202.800 260.448 C 203.285 261.710,203.041 268.578,202.472 269.678 C 199.099 276.200,188.636 275.514,188.636 268.771 C 188.636 263.964,192.092 261.568,201.136 260.105 C 201.657 260.021,202.193 259.928,202.327 259.900 C 202.461 259.872,202.674 260.118,202.800 260.448 M244.366 273.011 L 244.318 277.273 246.379 277.273 C 248.246 277.273,249.671 276.595,248.573 276.229 C 248.340 276.151,248.236 275.860,248.343 275.582 C 248.449 275.304,248.352 274.962,248.126 274.823 C 247.900 274.683,247.799 274.433,247.901 274.267 C 248.112 273.927,245.830 274.117,245.486 274.468 C 245.365 274.592,245.074 273.356,244.839 271.722 L 244.414 268.750 244.366 273.011 M76.093 304.830 C 76.660 305.868,85.768 314.668,89.962 318.229 C 110.431 335.611,132.576 346.633,161.529 353.850 C 165.971 354.958,173.011 356.038,176.188 356.100 C 177.770 356.131,179.103 356.339,179.268 356.581 C 179.469 356.875,179.681 356.801,179.950 356.345 C 180.165 355.980,180.620 355.682,180.962 355.682 C 181.499 355.682,181.488 355.612,180.882 355.168 C 180.452 354.854,180.273 354.413,180.419 354.032 C 180.608 353.539,180.420 353.409,179.518 353.409 C 175.118 353.409,150.845 347.312,144.886 344.710 C 144.470 344.528,142.850 343.917,141.288 343.353 C 139.725 342.788,137.850 342.075,137.121 341.769 C 136.392 341.462,135.455 341.067,135.038 340.892 C 117.861 333.668,100.190 321.987,87.085 309.194 L 81.935 304.167 78.833 304.167 C 75.993 304.167,75.762 304.223,76.093 304.830 M186.905 356.103 C 186.542 356.691,187.910 356.949,188.462 356.396 C 188.910 355.949,188.849 355.863,188.052 355.816 C 187.537 355.786,187.022 355.915,186.905 356.103 " stroke="none" fill="#4d3c7e" fill-rule="evenodd"></path><path id="path1" d="M0.000 189.394 L 0.000 378.788 200.000 378.788 L 400.000 378.788 400.000 189.394 L 400.000 0.000 200.000 0.000 L 0.000 0.000 0.000 189.394 M218.750 20.816 C 220.417 21.046,223.741 21.505,226.136 21.836 C 317.551 34.464,381.884 118.873,369.720 210.227 C 368.267 221.136,368.546 220.455,365.539 220.455 C 362.786 220.455,362.768 220.425,363.465 217.083 C 366.780 201.181,366.984 178.917,363.980 160.795 C 353.921 100.120,307.566 48.776,247.538 31.821 C 240.806 29.920,236.143 28.866,229.924 27.839 C 186.244 20.627,143.941 29.828,108.009 54.356 C 98.764 60.667,84.401 73.361,78.000 80.878 C 77.288 81.715,75.756 83.505,74.598 84.855 C 63.419 97.883,52.884 116.177,46.463 133.712 C 42.806 143.699,40.912 151.310,38.638 165.152 C 36.438 178.547,36.898 202.583,39.631 217.020 C 40.271 220.401,40.177 220.526,37.111 220.379 L 34.716 220.265 34.227 218.105 C 32.066 208.563,31.022 186.881,32.114 174.242 C 33.364 159.790,37.211 142.088,41.458 131.250 C 58.054 88.896,86.297 57.437,125.214 37.953 C 129.234 35.940,130.829 35.196,133.523 34.078 C 133.939 33.905,134.877 33.504,135.606 33.188 C 143.713 29.668,153.609 26.602,165.720 23.859 C 172.204 22.390,183.108 20.879,191.477 20.291 C 195.353 20.018,215.828 20.412,218.750 20.816 M237.452 76.506 C 244.660 77.873,249.755 85.540,249.793 95.076 C 249.823 102.528,248.782 104.831,246.710 101.902 C 244.026 98.107,237.062 97.035,231.688 99.589 C 229.581 100.591,229.131 100.958,229.285 101.547 C 229.405 102.008,229.280 102.273,228.942 102.273 C 228.649 102.273,228.409 102.102,228.409 101.894 C 228.409 101.686,228.147 101.515,227.828 101.515 C 227.370 101.515,227.330 101.671,227.639 102.250 C 228.060 103.036,227.589 103.649,226.894 103.220 C 226.686 103.091,226.515 103.243,226.515 103.557 C 226.515 103.872,226.789 104.283,227.125 104.470 C 227.685 104.784,227.685 104.830,227.125 105.045 C 226.789 105.174,226.515 105.114,226.515 104.912 C 226.515 104.236,225.730 104.536,224.752 105.587 C 224.219 106.160,223.542 106.578,223.249 106.516 C 222.955 106.454,222.761 106.592,222.816 106.822 C 222.943 107.352,219.936 108.456,219.760 107.944 C 219.691 107.741,219.492 107.576,219.320 107.576 C 219.147 107.576,219.203 108.114,219.446 108.771 C 219.791 109.707,219.783 110.002,219.413 110.129 C 218.538 110.427,218.917 111.321,225.000 123.307 C 228.333 129.876,231.061 135.378,231.061 135.536 C 231.061 135.693,229.699 137.691,228.035 139.975 C 226.371 142.260,224.709 144.550,224.342 145.065 C 223.975 145.580,222.822 146.948,221.780 148.106 C 217.898 152.420,216.667 153.977,217.040 154.102 C 217.252 154.172,217.424 154.626,217.424 155.110 C 217.424 156.899,219.550 155.343,222.283 151.554 C 223.126 150.384,223.371 149.751,223.106 149.432 C 222.853 149.127,222.865 148.581,223.143 147.784 C 223.586 146.514,224.070 146.539,224.656 147.861 C 224.980 148.592,225.002 148.570,224.872 147.635 C 224.712 146.487,225.278 145.822,226.492 145.731 C 229.010 145.541,241.044 128.265,246.605 116.856 C 248.957 112.031,249.744 109.934,252.288 101.705 C 254.103 95.830,253.676 89.322,251.144 84.280 C 248.978 79.968,249.366 79.913,254.624 83.784 C 268.232 93.800,272.455 110.080,265.687 126.430 C 262.978 132.976,258.508 141.374,257.175 142.424 C 256.657 142.832,250.379 152.267,250.379 152.637 C 250.379 152.853,250.194 153.030,249.968 153.030 C 249.743 153.030,249.633 153.243,249.724 153.504 C 249.878 153.943,247.902 156.850,247.257 157.134 C 247.099 157.203,246.970 157.587,246.970 157.986 C 246.970 158.385,246.799 158.712,246.591 158.712 C 246.383 158.712,246.255 158.921,246.307 159.177 C 246.359 159.432,246.018 159.700,245.549 159.771 C 245.080 159.843,244.697 160.145,244.697 160.443 C 244.697 160.741,244.431 160.985,244.106 160.985 C 243.782 160.985,243.614 161.144,243.734 161.337 C 243.854 161.531,243.779 161.797,243.567 161.928 C 243.355 162.059,243.182 162.517,243.182 162.945 C 243.182 163.548,243.003 163.678,242.394 163.519 C 241.868 163.381,241.666 163.467,241.786 163.779 C 241.884 164.035,241.701 164.832,241.379 165.550 C 240.943 166.524,240.753 166.687,240.634 166.193 C 240.411 165.265,238.636 166.358,238.636 167.424 C 238.636 167.633,238.423 167.807,238.163 167.811 C 237.220 167.827,235.690 170.558,235.887 171.875 C 236.208 174.027,237.609 172.878,242.322 166.594 C 245.340 162.570,245.908 162.434,247.131 165.441 C 247.532 166.428,247.959 167.320,248.078 167.424 C 248.198 167.528,249.040 169.063,249.949 170.833 C 253.234 177.228,257.513 185.479,259.084 188.447 C 262.684 195.251,265.530 201.086,265.530 201.662 C 265.530 202.205,264.617 202.273,257.292 202.279 C 252.451 202.282,249.268 202.421,249.575 202.615 C 249.862 202.797,249.993 203.114,249.866 203.319 C 249.580 203.782,247.788 203.814,247.509 203.362 C 247.396 203.179,246.999 203.030,246.627 203.030 C 245.465 203.030,243.494 201.857,243.710 201.294 C 243.829 200.983,242.571 199.437,240.583 197.451 C 238.753 195.624,236.923 193.447,236.515 192.614 C 234.634 188.765,232.476 185.606,231.729 185.606 C 231.107 185.606,231.051 185.506,231.424 185.056 C 231.910 184.471,231.239 181.818,230.606 181.818 C 230.439 181.818,230.303 181.477,230.303 181.061 C 230.303 180.146,230.162 180.130,228.980 180.904 C 228.243 181.387,228.106 181.722,228.283 182.609 C 228.422 183.304,228.346 183.712,228.078 183.712 C 227.843 183.712,227.652 183.532,227.652 183.311 C 227.652 183.090,227.481 183.015,227.273 183.144 C 227.064 183.273,226.894 183.707,226.894 184.108 C 226.894 184.842,224.846 185.985,223.530 185.985 C 223.189 185.985,222.686 186.343,222.413 186.780 C 222.082 187.310,221.664 187.508,221.158 187.376 C 220.468 187.196,218.939 188.231,218.939 188.879 C 218.939 189.012,218.658 189.327,218.313 189.579 C 217.655 190.060,217.950 191.097,218.626 190.679 C 219.451 190.170,217.780 192.273,216.788 192.992 C 216.214 193.409,215.283 194.176,214.719 194.697 C 212.946 196.334,212.124 196.970,211.779 196.970 C 211.595 196.970,211.347 197.225,211.227 197.538 C 211.107 197.850,210.742 198.106,210.416 198.106 C 209.696 198.106,207.576 200.204,207.576 200.916 C 207.576 201.539,206.153 201.971,205.829 201.447 C 205.678 201.203,205.452 201.215,205.185 201.482 C 204.667 201.999,203.661 202.027,203.977 201.515 C 204.106 201.307,204.031 201.136,203.810 201.136 C 203.590 201.136,203.409 201.477,203.409 201.894 C 203.409 202.311,203.239 202.652,203.030 202.652 C 202.822 202.652,202.652 202.486,202.652 202.285 C 202.652 202.083,202.391 202.017,202.074 202.139 C 201.628 202.310,201.595 202.481,201.931 202.885 C 202.508 203.581,201.767 204.478,200.006 205.214 C 199.280 205.518,198.459 206.091,198.181 206.488 C 197.702 207.172,197.620 207.176,196.607 206.578 C 195.918 206.171,195.289 206.055,194.834 206.252 C 194.181 206.534,194.177 206.568,194.792 206.715 C 195.590 206.906,195.584 206.820,194.892 208.208 C 194.202 209.591,191.644 210.966,189.343 211.191 C 188.642 211.259,188.068 211.339,188.068 211.368 C 188.068 211.489,186.466 211.823,185.227 211.960 C 184.498 212.042,182.623 212.288,181.061 212.509 C 176.533 213.148,172.292 212.949,171.750 212.071 C 171.638 211.890,171.215 211.742,170.811 211.742 C 170.407 211.742,170.076 211.588,170.076 211.399 C 170.076 211.210,170.393 211.139,170.781 211.240 C 171.204 211.351,171.578 211.185,171.716 210.826 C 171.860 210.452,171.742 210.227,171.402 210.227 C 170.727 210.227,168.038 209.003,167.866 208.617 C 167.797 208.461,167.516 208.333,167.242 208.333 C 165.863 208.333,162.384 203.327,160.024 197.945 C 158.865 195.304,159.656 185.791,161.254 183.144 C 161.689 182.424,161.804 182.482,163.550 184.280 C 171.214 192.175,185.478 188.096,201.284 173.491 C 207.612 167.644,208.493 166.575,207.347 166.136 C 207.012 166.007,206.833 165.658,206.949 165.358 C 207.246 164.584,204.645 164.214,198.864 164.209 C 188.414 164.199,178.717 165.751,182.239 166.869 L 183.081 167.137 182.165 167.830 C 181.607 168.253,180.917 168.441,180.398 168.312 C 179.910 168.190,179.545 168.274,179.545 168.508 C 179.545 168.732,179.312 168.826,179.026 168.716 C 178.740 168.607,178.272 168.744,177.984 169.021 C 177.697 169.298,176.695 169.541,175.758 169.561 C 174.820 169.582,173.747 169.727,173.372 169.884 C 172.910 170.079,172.530 169.951,172.192 169.488 C 171.719 168.841,171.621 168.839,170.353 169.440 C 169.617 169.790,168.914 170.076,168.790 170.076 C 168.667 170.076,168.182 170.407,167.711 170.811 C 167.241 171.215,166.345 171.985,165.720 172.523 C 164.785 173.326,164.682 173.561,165.141 173.850 C 165.447 174.043,165.566 174.333,165.404 174.495 C 165.242 174.656,164.957 174.540,164.769 174.237 C 164.483 173.774,164.302 173.819,163.653 174.516 C 162.677 175.564,162.672 175.900,163.636 175.648 C 164.053 175.539,164.394 175.604,164.394 175.793 C 164.394 175.982,164.119 176.136,163.783 176.136 C 163.319 176.136,163.212 176.411,163.338 177.273 C 163.505 178.411,163.216 178.625,161.786 178.426 C 161.420 178.374,161.327 178.607,161.480 179.191 C 161.701 180.035,159.433 182.791,158.930 182.289 C 158.810 182.169,158.712 182.468,158.712 182.955 C 158.712 183.441,158.595 183.722,158.453 183.579 C 157.768 182.894,156.812 187.833,156.777 192.236 C 156.735 197.539,157.761 201.565,159.932 204.622 C 161.472 206.791,157.155 204.582,153.509 201.336 C 140.224 189.509,137.576 172.646,147.012 159.966 C 150.407 155.404,160.350 147.348,162.586 147.348 C 162.955 147.348,163.258 147.192,163.258 147.000 C 163.258 146.808,163.806 146.531,164.476 146.383 C 165.146 146.236,165.956 145.971,166.275 145.794 C 167.038 145.372,172.780 143.682,175.189 143.171 C 182.221 141.680,185.824 141.302,195.265 141.061 C 203.482 140.852,210.467 140.348,207.292 140.193 C 206.347 140.147,206.226 139.726,206.863 138.705 C 207.333 137.952,206.587 136.152,203.774 131.250 C 202.937 129.792,202.153 128.343,202.032 128.030 C 201.681 127.126,197.935 119.685,196.835 117.708 C 196.284 116.719,195.381 115.099,194.827 114.110 C 194.274 113.120,192.322 109.378,190.489 105.794 C 188.656 102.210,186.365 97.884,185.399 96.180 C 184.432 94.477,183.002 91.869,182.220 90.386 C 181.439 88.903,180.177 86.556,179.415 85.170 C 178.653 83.784,178.030 82.463,178.030 82.234 C 178.030 81.547,192.910 81.687,195.265 82.397 C 199.379 83.637,203.699 86.434,206.142 89.440 C 207.791 91.469,211.364 97.076,211.364 97.636 C 211.364 97.860,211.491 98.100,211.648 98.169 C 211.804 98.239,212.269 98.977,212.682 99.811 C 213.094 100.644,214.074 102.394,214.860 103.700 C 215.645 105.006,216.288 106.223,216.288 106.406 C 216.288 106.929,217.421 107.226,217.454 106.712 C 217.477 106.361,217.530 106.364,217.675 106.723 C 217.991 107.506,218.460 107.260,218.661 106.208 C 218.841 105.266,213.381 93.868,210.763 89.721 C 210.260 88.925,209.848 88.120,209.848 87.933 C 209.848 87.746,209.593 87.381,209.280 87.121 C 208.277 86.289,208.658 85.725,211.269 84.174 C 213.971 82.569,220.908 79.079,222.170 78.690 C 222.581 78.563,223.684 78.176,224.621 77.830 C 228.662 76.337,233.779 75.810,237.452 76.506 M187.005 106.061 C 187.524 106.998,188.444 108.547,189.050 109.503 C 189.656 110.459,190.152 111.425,190.152 111.649 C 190.152 111.874,190.279 112.115,190.436 112.184 C 190.592 112.254,191.572 114.015,192.614 116.098 C 193.655 118.182,194.593 119.972,194.697 120.076 C 196.673 122.051,196.530 123.946,194.203 126.646 C 191.649 129.610,188.836 133.264,186.852 136.194 L 185.300 138.487 179.866 139.301 C 172.741 140.368,170.867 140.762,167.235 141.957 C 163.987 143.025,157.024 146.448,155.044 147.949 C 154.381 148.452,153.734 148.864,153.607 148.864 C 153.480 148.864,152.916 149.290,152.355 149.811 C 150.426 151.599,149.809 150.901,151.259 148.572 C 151.743 147.795,152.261 146.903,152.410 146.591 C 153.433 144.447,161.586 132.661,166.034 126.894 C 167.714 124.716,178.636 111.472,179.155 110.985 C 179.265 110.881,180.379 109.607,181.629 108.155 C 182.879 106.702,184.157 105.223,184.470 104.866 C 185.330 103.885,185.967 104.185,187.005 106.061 M233.965 174.116 C 233.495 174.586,233.708 175.356,234.251 175.148 C 234.972 174.871,235.333 173.864,234.710 173.864 C 234.439 173.864,234.104 173.977,233.965 174.116 M231.639 177.254 C 230.969 178.549,230.904 179.167,231.439 179.167 C 231.648 179.167,231.818 178.826,231.818 178.409 C 231.818 177.992,232.056 177.652,232.346 177.652 C 232.786 177.652,233.333 176.900,233.333 176.295 C 233.333 175.656,232.106 176.351,231.639 177.254 M158.712 194.530 C 158.712 195.046,158.490 195.455,158.210 195.455 C 157.867 195.455,157.760 195.094,157.873 194.322 C 158.066 193.006,158.712 193.166,158.712 194.530 M183.333 210.784 C 183.333 211.122,183.555 211.255,183.902 211.122 C 184.214 211.002,184.470 210.752,184.470 210.566 C 184.470 210.379,184.214 210.227,183.902 210.227 C 183.589 210.227,183.333 210.478,183.333 210.784 M180.213 211.253 C 180.684 211.343,181.366 211.340,181.728 211.245 C 182.090 211.150,181.705 211.076,180.871 211.080 C 180.038 211.085,179.742 211.162,180.213 211.253 M341.477 228.943 L 342.614 229.852 342.614 253.847 L 342.614 277.841 339.205 277.841 L 335.795 277.841 335.606 255.854 C 335.396 231.414,335.484 232.199,332.858 231.522 C 331.440 231.157,330.962 229.822,332.082 229.360 C 335.689 227.874,339.906 227.686,341.477 228.943 M94.896 229.552 C 96.232 230.377,96.330 230.580,100.375 240.909 C 101.640 244.138,102.831 247.121,103.022 247.538 C 103.214 247.955,104.584 251.278,106.067 254.924 C 107.550 258.570,108.993 262.064,109.273 262.689 C 113.207 271.470,114.385 273.781,115.772 275.442 C 117.795 277.862,117.206 278.593,113.258 278.565 C 107.728 278.527,104.914 275.517,101.537 266.028 L 100.484 263.068 91.392 262.967 C 84.397 262.889,82.218 262.976,81.942 263.346 C 81.493 263.947,80.869 265.492,78.386 272.159 C 75.995 278.578,76.544 277.972,73.022 278.084 C 69.319 278.202,69.394 278.350,71.199 274.460 C 72.040 272.649,72.727 271.105,72.727 271.028 C 72.727 270.951,73.304 269.640,74.008 268.115 C 74.713 266.589,76.863 261.591,78.787 257.008 C 80.711 252.424,82.598 247.992,82.981 247.159 C 83.364 246.326,84.007 244.791,84.410 243.748 C 84.813 242.705,85.759 240.519,86.511 238.891 C 88.736 234.074,88.727 232.266,86.474 231.409 C 85.594 231.075,85.390 230.465,85.896 229.684 C 86.636 228.542,93.108 228.447,94.896 229.552 M87.576 248.958 C 85.646 253.802,84.072 257.893,84.078 258.049 C 84.094 258.395,93.893 258.429,96.349 258.092 C 98.274 257.829,98.409 257.554,97.576 255.600 C 97.000 254.248,96.897 253.985,93.700 245.739 C 92.508 242.666,91.433 240.152,91.310 240.152 C 91.187 240.152,89.507 244.115,87.576 248.958 M126.651 243.703 C 127.875 244.215,129.167 246.165,129.167 247.500 C 129.167 248.399,129.481 248.262,131.330 246.558 C 136.896 241.427,146.238 242.068,149.875 247.829 L 150.858 249.386 152.228 247.846 C 158.093 241.254,168.943 241.482,172.928 248.280 C 174.651 251.221,174.986 254.093,174.993 265.973 C 175.001 279.263,175.431 278.030,170.793 278.030 L 167.045 278.030 167.029 266.383 C 167.008 252.080,166.804 251.239,162.942 249.572 C 158.717 247.748,153.490 250.139,152.296 254.440 C 152.060 255.288,151.897 260.388,151.896 266.951 L 151.894 278.030 148.106 278.030 L 144.318 278.030 144.318 266.680 C 144.318 257.228,144.216 255.026,143.706 253.517 C 142.012 248.503,135.486 247.336,131.389 251.315 C 129.309 253.336,129.167 254.327,129.167 266.819 L 129.167 278.057 125.284 277.949 L 121.402 277.841 121.212 263.221 C 121.007 247.413,121.037 247.620,118.918 247.154 C 115.932 246.499,117.415 244.884,122.037 243.757 C 124.735 243.099,125.193 243.094,126.651 243.703 M202.423 243.849 C 208.508 245.557,210.576 250.794,210.084 263.253 C 209.726 272.327,210.110 274.083,212.560 274.581 C 215.325 275.143,213.958 277.759,210.663 278.212 C 207.211 278.687,205.113 277.817,203.716 275.332 L 202.888 273.858 201.917 274.762 C 194.040 282.100,181.439 278.789,181.439 269.382 C 181.439 263.170,186.422 259.588,197.813 257.611 C 203.145 256.685,203.547 256.073,201.710 251.663 C 199.649 246.716,189.455 246.751,186.201 251.717 C 185.206 253.235,184.470 252.918,184.470 250.972 C 184.470 247.305,186.224 245.469,191.477 243.636 C 192.891 243.143,200.431 243.290,202.423 243.849 M244.505 244.144 C 250.063 246.773,250.543 248.372,250.681 264.692 L 250.794 278.058 247.083 277.950 L 243.371 277.841 243.182 265.720 C 243.021 255.419,242.899 253.428,242.368 252.461 C 239.485 247.207,230.949 247.891,228.364 253.583 C 227.739 254.959,227.667 256.275,227.660 266.586 L 227.652 278.058 223.958 277.949 L 220.265 277.841 220.076 263.419 C 219.869 247.697,219.984 248.451,217.615 247.316 C 215.016 246.070,217.007 244.308,221.654 243.743 C 225.471 243.278,227.652 244.787,227.652 247.892 L 227.652 248.890 228.832 247.545 C 232.520 243.345,239.578 241.813,244.505 244.144 M318.686 243.947 C 324.724 245.812,328.409 251.294,328.409 258.413 C 328.409 259.827,328.366 261.021,328.314 261.066 C 328.262 261.110,323.021 261.238,316.667 261.350 L 305.114 261.553 305.243 263.258 C 305.912 272.039,316.513 276.217,324.482 270.839 C 327.632 268.713,328.635 270.839,325.906 273.859 C 319.345 281.121,304.871 279.416,299.812 270.784 C 291.348 256.343,303.389 239.222,318.686 243.947 M266.534 244.841 C 267.419 245.869,267.424 245.936,267.434 255.798 C 267.447 270.501,268.297 272.474,274.621 272.496 C 281.473 272.519,282.576 270.068,282.576 254.818 L 282.576 243.912 286.269 244.020 L 289.962 244.129 290.152 258.749 C 290.360 274.849,290.302 274.492,292.737 274.695 C 294.542 274.845,294.856 276.076,293.342 277.068 C 290.222 279.112,283.333 277.433,283.333 274.628 C 283.333 273.096,282.396 273.098,280.907 274.632 C 276.236 279.446,266.856 279.662,262.806 275.049 C 260.236 272.121,260.090 271.360,259.864 259.659 C 259.640 248.067,259.549 247.586,257.472 247.051 C 255.824 246.626,255.608 245.351,257.083 244.755 C 260.857 243.230,265.183 243.270,266.534 244.841 M310.353 247.557 C 307.887 248.638,305.304 253.015,305.303 256.116 L 305.303 257.498 310.115 257.632 C 312.762 257.705,316.256 257.704,317.880 257.630 L 320.833 257.496 320.833 255.117 C 320.833 249.061,315.576 245.269,310.353 247.557 M199.811 260.876 C 191.168 262.065,186.322 267.787,190.312 272.092 C 194.511 276.623,201.995 272.650,202.403 265.673 C 202.732 260.052,202.945 260.445,199.811 260.876 M86.066 307.644 C 123.978 345.203,184.430 362.219,237.121 350.163 C 240.379 349.417,246.915 347.740,248.106 347.344 C 248.627 347.170,250.587 346.566,252.462 346.000 C 275.272 339.121,298.012 325.603,316.382 308.002 L 321.211 303.376 323.954 303.487 C 327.947 303.649,327.833 303.948,321.326 310.326 C 288.866 342.143,246.859 359.254,201.326 359.204 C 189.272 359.191,179.897 358.249,166.098 355.664 C 157.941 354.135,140.211 348.662,134.280 345.841 C 133.864 345.643,131.063 344.367,128.056 343.006 C 110.874 335.226,94.832 324.196,81.064 310.693 C 73.795 303.564,73.743 303.409,78.607 303.409 L 81.791 303.409 86.066 307.644 " stroke="none" fill="#fbfbfb" fill-rule="evenodd"></path><path id="path2" d="M200.473 20.733 C 201.463 20.811,203.082 20.811,204.072 20.733 C 205.062 20.655,204.252 20.591,202.273 20.591 C 200.294 20.591,199.484 20.655,200.473 20.733 M235.606 24.211 C 235.919 24.390,236.941 24.636,237.879 24.759 L 239.583 24.981 237.689 24.430 C 235.564 23.811,234.757 23.726,235.606 24.211 M201.042 24.899 C 201.927 24.978,203.376 24.978,204.261 24.899 C 205.147 24.819,204.422 24.754,202.652 24.754 C 200.881 24.754,200.156 24.819,201.042 24.899 M240.341 25.379 C 240.470 25.587,240.991 25.758,241.500 25.758 C 242.008 25.758,242.723 26.056,243.087 26.420 C 243.515 26.848,244.187 27.041,244.981 26.965 C 245.673 26.898,246.212 27.022,246.212 27.249 C 246.212 27.470,246.553 27.652,246.970 27.652 C 247.391 27.652,247.727 27.904,247.727 28.220 C 247.727 28.532,247.983 28.788,248.295 28.788 C 249.098 28.788,249.006 29.918,248.201 29.954 C 247.801 29.972,247.727 30.060,248.014 30.176 C 249.255 30.676,247.884 30.958,246.392 30.509 C 245.460 30.228,244.697 30.130,244.697 30.290 C 244.697 30.451,245.762 30.879,247.064 31.242 C 277.818 39.810,306.801 58.408,328.788 83.683 C 330.767 85.958,332.505 87.833,332.651 87.849 C 333.167 87.907,332.083 85.405,331.294 84.719 C 330.606 84.120,330.592 84.053,331.190 84.247 C 331.685 84.407,331.947 84.248,332.091 83.699 C 332.282 82.967,332.332 82.959,333.003 83.566 C 333.749 84.241,333.979 84.005,333.337 83.223 C 333.130 82.971,331.644 81.146,330.035 79.167 C 316.503 62.525,292.727 44.540,273.485 36.389 C 272.339 35.903,270.549 35.120,269.508 34.647 C 262.377 31.411,253.644 28.417,244.182 25.967 C 239.901 24.859,240.032 24.879,240.341 25.379 M233.712 28.030 C 235.072 28.466,235.686 28.466,235.417 28.030 C 235.288 27.822,234.639 27.669,233.974 27.689 C 232.820 27.725,232.808 27.741,233.712 28.030 M238.447 28.978 C 239.280 29.258,240.303 29.495,240.720 29.505 C 242.082 29.536,240.497 28.908,238.636 28.679 L 236.932 28.469 238.447 28.978 M250.690 29.654 C 250.999 30.026,250.880 30.159,250.183 30.217 C 249.515 30.272,249.328 30.141,249.486 29.729 C 249.752 29.038,250.158 29.012,250.690 29.654 M242.235 29.924 C 242.652 30.103,243.333 30.250,243.750 30.250 L 244.508 30.250 243.750 29.924 C 243.333 29.745,242.652 29.599,242.235 29.599 L 241.477 29.599 242.235 29.924 M230.115 76.848 C 229.491 76.981,231.084 77.090,233.656 77.090 C 236.228 77.090,237.932 76.978,237.443 76.841 C 236.314 76.524,231.609 76.528,230.115 76.848 M226.190 77.707 C 225.490 77.909,224.988 78.144,225.074 78.231 C 225.266 78.422,228.030 77.687,228.030 77.444 C 228.030 77.221,227.730 77.264,226.190 77.707 M243.429 80.604 C 244.712 81.880,246.236 83.864,246.818 85.012 C 247.399 86.160,247.938 87.036,248.016 86.959 C 248.646 86.328,244.487 80.612,242.310 79.116 C 241.610 78.635,242.082 79.263,243.429 80.604 M238.186 80.549 C 237.869 81.195,237.384 81.605,236.976 81.570 C 236.474 81.527,236.346 81.708,236.489 82.256 C 236.603 82.694,236.465 83.085,236.152 83.205 C 235.754 83.358,235.717 83.591,236.005 84.129 C 236.218 84.526,236.237 84.848,236.048 84.848 C 235.860 84.848,235.613 85.544,235.499 86.393 C 235.385 87.243,235.005 88.255,234.654 88.642 C 234.304 89.029,234.133 89.535,234.276 89.765 C 234.418 89.996,234.318 90.446,234.053 90.765 C 233.663 91.235,233.664 91.403,234.057 91.645 C 234.395 91.854,234.244 92.020,233.559 92.192 C 232.776 92.389,232.576 92.668,232.576 93.568 C 232.576 94.189,232.419 94.697,232.227 94.697 C 231.684 94.697,231.321 96.939,231.776 97.487 C 232.063 97.833,232.051 98.101,231.733 98.418 C 231.169 98.983,231.294 98.973,233.144 98.306 C 237.312 96.805,243.397 97.825,246.163 100.489 C 247.128 101.418,247.645 101.745,247.403 101.272 C 247.174 100.826,246.514 100.059,245.937 99.567 C 244.954 98.732,244.878 98.453,244.765 95.265 C 244.533 88.754,242.854 83.511,240.160 80.880 L 238.715 79.468 238.186 80.549 M248.125 87.689 C 248.123 87.898,248.372 88.920,248.680 89.962 L 249.239 91.856 249.037 90.188 C 248.858 88.704,248.136 86.725,248.125 87.689 M249.377 95.265 C 249.376 97.140,249.440 97.955,249.519 97.076 C 249.599 96.197,249.600 94.663,249.521 93.667 C 249.443 92.671,249.378 93.390,249.377 95.265 M228.220 100.046 C 224.873 101.785,224.718 102.207,228.030 100.563 C 231.060 99.060,231.385 98.863,230.840 98.864 C 230.649 98.865,229.470 99.397,228.220 100.046 M248.673 100.189 C 248.515 101.023,248.217 101.918,248.010 102.178 C 247.757 102.497,247.769 102.652,248.045 102.652 C 248.507 102.652,249.376 99.807,249.124 99.120 C 249.034 98.875,248.831 99.356,248.673 100.189 M221.594 104.147 C 220.615 104.959,220.145 105.139,219.786 104.841 C 219.417 104.534,219.358 104.587,219.539 105.060 C 219.856 105.884,219.856 105.884,221.857 104.356 C 222.812 103.627,223.441 103.035,223.255 103.040 C 223.069 103.046,222.321 103.544,221.594 104.147 M236.045 135.906 C 235.349 136.763,234.457 137.855,234.064 138.334 C 233.670 138.813,233.215 139.375,233.054 139.583 C 221.591 154.397,207.449 169.442,197.538 177.364 C 193.019 180.977,192.574 181.389,194.318 180.343 C 196.014 179.327,196.212 179.342,196.212 180.492 C 196.212 181.052,196.429 181.439,196.743 181.439 C 197.035 181.439,197.453 181.951,197.671 182.576 C 197.888 183.201,198.331 183.712,198.655 183.712 C 198.990 183.712,199.242 184.038,199.242 184.470 C 199.242 184.886,199.455 185.232,199.716 185.237 C 199.976 185.243,200.607 185.925,201.118 186.753 C 201.628 187.580,202.182 188.258,202.349 188.258 C 202.515 188.258,202.652 188.674,202.652 189.182 C 202.652 189.691,202.822 190.212,203.030 190.341 C 203.239 190.470,203.409 190.987,203.409 191.491 C 203.409 192.049,203.778 192.648,204.354 193.026 C 205.179 193.566,205.269 193.832,205.063 195.118 C 204.806 196.728,205.061 196.927,206.134 195.956 C 206.689 195.454,206.933 195.418,207.301 195.787 C 207.787 196.274,204.778 199.321,203.314 199.823 C 202.950 199.949,202.652 200.216,202.652 200.418 C 202.652 203.501,226.713 180.763,236.364 168.560 C 237.093 167.638,238.219 166.281,238.867 165.544 C 242.798 161.071,249.091 152.374,248.688 151.970 C 248.553 151.836,248.317 151.931,248.163 152.181 C 247.957 152.514,247.734 152.459,247.331 151.975 C 246.399 150.858,245.731 149.335,245.990 148.916 C 246.125 148.697,246.002 147.957,245.715 147.270 C 245.428 146.584,245.174 145.892,245.149 145.732 C 245.008 144.810,243.775 142.795,243.423 142.912 C 243.194 142.988,242.598 142.015,242.098 140.749 C 241.598 139.483,240.888 138.106,240.519 137.689 C 240.150 137.273,239.786 136.591,239.711 136.174 C 239.635 135.758,239.320 135.417,239.010 135.417 C 238.700 135.417,238.488 135.624,238.537 135.877 C 238.588 136.135,238.390 136.245,238.086 136.129 C 237.788 136.014,237.492 135.567,237.427 135.135 C 237.326 134.451,237.147 134.550,236.045 135.906 M227.273 139.773 C 226.613 140.606,226.158 141.288,226.262 141.288 C 226.366 141.288,226.992 140.606,227.652 139.773 C 228.312 138.939,228.766 138.258,228.662 138.258 C 228.558 138.258,227.933 138.939,227.273 139.773 M206.539 141.560 C 207.115 141.647,207.967 141.644,208.433 141.555 C 208.899 141.465,208.428 141.393,207.386 141.396 C 206.345 141.399,205.964 141.473,206.539 141.560 M204.640 163.897 C 205.005 163.993,205.601 163.993,205.966 163.897 C 206.330 163.802,206.032 163.724,205.303 163.724 C 204.574 163.724,204.276 163.802,204.640 163.897 M241.168 169.096 C 238.915 171.878,235.875 175.453,234.413 177.040 C 232.951 178.626,231.845 179.924,231.955 179.924 C 232.230 179.924,235.399 176.519,238.301 173.106 C 239.630 171.544,240.888 170.073,241.097 169.838 C 241.306 169.603,242.244 168.461,243.182 167.299 C 245.209 164.789,245.592 164.706,246.528 166.572 C 246.920 167.353,247.518 168.502,247.856 169.126 L 248.471 170.259 246.256 172.535 C 245.037 173.786,243.549 175.398,242.948 176.116 C 242.348 176.834,241.242 178.112,240.491 178.957 C 238.386 181.323,234.848 186.018,234.848 186.445 C 234.848 186.655,234.494 186.424,234.061 185.932 C 232.848 184.554,236.837 191.891,238.668 194.405 C 240.599 197.056,243.881 199.619,246.878 200.817 C 248.974 201.655,264.187 202.228,264.918 201.497 C 265.146 201.269,264.096 199.164,254.251 180.114 C 246.572 165.252,246.039 164.269,245.595 164.136 C 245.413 164.082,243.421 166.314,241.168 169.096 M231.091 180.606 C 231.057 181.153,232.108 183.333,232.406 183.333 C 232.510 183.333,232.359 182.865,232.069 182.292 C 231.780 181.719,231.448 180.994,231.332 180.682 C 231.190 180.300,231.111 180.275,231.091 180.606 M190.478 182.597 C 189.630 183.335,189.627 183.355,190.415 182.974 C 190.872 182.753,191.350 182.402,191.479 182.195 C 191.851 181.592,191.443 181.756,190.478 182.597 M196.591 182.765 C 196.591 183.078,196.761 183.333,196.970 183.333 C 197.178 183.333,197.348 183.078,197.348 182.765 C 197.348 182.453,197.178 182.197,196.970 182.197 C 196.761 182.197,196.591 182.453,196.591 182.765 M200.852 201.559 C 199.561 202.386,199.143 202.941,200.284 202.314 C 201.153 201.836,202.515 200.783,202.273 200.776 C 202.169 200.773,201.529 201.125,200.852 201.559 M234.280 244.280 C 233.239 244.667,232.427 245.168,232.477 245.395 C 232.526 245.621,232.340 245.719,232.064 245.613 C 231.787 245.507,231.320 245.715,231.027 246.076 C 230.550 246.662,230.569 246.704,231.209 246.464 C 231.809 246.239,231.850 246.286,231.460 246.755 C 230.863 247.475,231.271 248.145,232.114 247.830 C 232.472 247.697,231.983 248.258,231.028 249.078 C 230.072 249.898,228.794 251.250,228.187 252.083 L 227.083 253.598 226.973 265.411 C 226.891 274.231,226.747 277.263,226.405 277.379 C 226.153 277.465,226.203 277.516,226.515 277.494 C 227.003 277.458,227.110 275.787,227.273 265.715 C 227.458 254.222,227.481 253.947,228.350 252.549 C 231.592 247.335,240.141 247.093,242.649 252.144 C 243.299 253.454,243.390 254.786,243.561 265.530 L 243.750 277.462 246.970 277.462 L 250.189 277.462 250.179 264.394 C 250.168 249.857,250.119 249.549,247.370 246.673 C 244.596 243.770,238.603 242.674,234.280 244.280 M222.254 244.207 C 222.723 244.297,223.490 244.297,223.958 244.207 C 224.427 244.116,224.044 244.043,223.106 244.043 C 222.169 244.043,221.785 244.116,222.254 244.207 M259.848 244.396 C 256.618 245.321,255.071 246.591,257.176 246.591 C 257.581 246.591,258.391 247.002,258.975 247.504 L 260.038 248.418 260.236 259.152 C 260.459 271.182,260.579 271.776,263.434 274.935 C 267.499 279.435,276.689 278.862,281.239 273.826 C 282.791 272.108,282.890 272.128,283.706 274.323 C 284.790 277.240,289.423 278.602,292.556 276.925 C 293.925 276.192,293.902 275.002,292.519 274.994 C 289.580 274.978,289.590 275.048,289.455 253.883 L 289.394 244.318 286.174 244.318 L 282.955 244.318 282.946 255.587 C 282.939 265.730,282.868 267.010,282.238 268.398 C 279.686 274.016,271.111 274.761,268.167 269.621 C 267.244 268.009,267.234 267.886,267.133 257.197 C 267.005 243.476,266.453 242.506,259.848 244.396 M311.932 244.188 C 309.728 244.451,306.085 245.537,305.650 246.061 C 305.408 246.352,305.042 246.591,304.837 246.591 C 304.632 246.591,303.581 247.503,302.502 248.617 C 295.963 255.367,296.117 266.613,302.844 273.710 C 304.993 275.977,311.742 278.249,311.742 276.705 C 311.742 276.338,312.113 276.135,312.784 276.132 C 313.751 276.128,313.703 276.057,312.121 275.153 C 309.938 273.906,309.905 273.864,311.111 273.864 C 311.818 273.864,312.123 274.062,312.127 274.527 C 312.131 274.935,312.239 275.030,312.411 274.773 C 312.564 274.544,312.945 274.259,313.258 274.140 C 313.668 273.984,313.614 273.915,313.064 273.894 C 310.030 273.774,305.096 268.276,304.546 264.401 C 303.973 260.357,303.741 260.478,312.602 260.206 C 316.608 260.082,319.152 259.952,318.254 259.915 C 317.259 259.874,316.715 259.698,316.860 259.464 C 316.991 259.252,317.218 259.153,317.365 259.244 C 317.512 259.335,318.225 259.270,318.949 259.099 C 319.983 258.856,319.534 258.777,316.856 258.729 C 303.722 258.496,304.387 258.662,304.494 255.643 C 304.555 253.924,304.492 253.740,303.986 254.159 C 303.504 254.559,303.408 254.521,303.404 253.929 C 303.401 253.539,303.295 252.834,303.169 252.362 C 302.988 251.686,303.066 251.553,303.539 251.734 C 303.977 251.902,304.321 251.542,304.815 250.396 C 305.314 249.241,305.667 248.872,306.156 248.999 C 306.521 249.094,306.731 249.029,306.624 248.856 C 306.516 248.682,306.789 248.425,307.229 248.285 C 308.337 247.934,309.405 246.792,309.691 245.654 C 309.916 244.754,310.077 244.697,312.374 244.697 C 313.907 244.697,314.730 244.556,314.583 244.318 C 314.351 243.942,314.104 243.929,311.932 244.188 M310.809 245.587 C 310.178 246.049,310.226 246.081,311.305 245.923 C 311.962 245.826,312.500 245.596,312.500 245.412 C 312.500 244.912,311.605 245.005,310.809 245.587 M228.971 247.892 C 227.820 249.400,227.410 249.555,227.155 248.580 C 227.025 248.081,226.971 248.128,226.938 248.769 C 226.906 249.383,227.105 249.621,227.652 249.621 C 228.068 249.621,228.409 249.476,228.409 249.298 C 228.409 249.120,228.845 248.504,229.377 247.930 C 229.909 247.355,230.268 246.808,230.173 246.713 C 230.078 246.619,229.537 247.149,228.971 247.892 M235.227 246.970 C 235.227 247.178,234.920 247.348,234.545 247.348 C 234.170 247.348,233.638 247.562,233.363 247.822 C 232.949 248.213,232.938 248.147,233.300 247.443 C 233.733 246.602,235.227 246.235,235.227 246.970 M306.061 246.951 C 306.061 247.149,305.832 247.447,305.552 247.614 C 305.272 247.780,304.742 248.384,304.374 248.955 C 304.006 249.526,303.553 249.900,303.368 249.785 C 302.830 249.452,302.977 248.864,303.598 248.864 C 303.911 248.864,304.167 248.693,304.167 248.485 C 304.167 248.046,305.357 246.669,305.777 246.622 C 305.933 246.605,306.061 246.753,306.061 246.951 M219.351 247.961 C 219.854 248.611,220.341 249.075,220.434 248.992 C 220.528 248.909,220.116 248.377,219.520 247.810 L 218.436 246.780 219.351 247.961 M309.279 259.472 C 309.001 259.921,308.075 259.971,307.815 259.550 C 307.713 259.386,308.054 259.217,308.571 259.174 C 309.113 259.129,309.413 259.255,309.279 259.472 M245.486 274.468 C 245.830 274.117,248.112 273.927,247.901 274.267 C 247.799 274.433,247.900 274.683,248.126 274.823 C 248.352 274.962,248.449 275.304,248.343 275.582 C 248.236 275.860,248.340 276.151,248.573 276.229 C 249.671 276.595,248.246 277.273,246.379 277.273 L 244.318 277.273 244.366 273.011 L 244.414 268.750 244.839 271.722 C 245.074 273.356,245.365 274.592,245.486 274.468 M325.762 271.582 C 325.435 272.193,325.468 272.291,325.938 272.110 C 326.256 271.988,326.515 271.651,326.515 271.361 C 326.515 270.621,326.232 270.704,325.762 271.582 M316.667 275.061 C 316.667 275.208,317.135 275.382,317.708 275.448 C 318.294 275.516,318.709 275.775,318.655 276.042 C 318.536 276.641,319.938 276.666,320.305 276.072 C 320.486 275.780,320.377 275.706,319.986 275.857 C 319.236 276.144,318.835 275.771,319.296 275.216 C 319.544 274.917,319.209 274.793,318.157 274.793 C 317.337 274.793,316.667 274.914,316.667 275.061 M221.503 277.547 C 222.184 277.632,223.207 277.630,223.776 277.543 C 224.345 277.457,223.788 277.388,222.538 277.390 C 221.288 277.392,220.822 277.463,221.503 277.547 M208.428 277.913 C 208.793 278.008,209.389 278.008,209.754 277.913 C 210.118 277.817,209.820 277.739,209.091 277.739 C 208.362 277.739,208.063 277.817,208.428 277.913 M279.167 335.531 C 267.050 341.588,257.743 345.147,244.318 348.858 C 242.947 349.237,239.711 350.033,236.742 350.722 C 232.806 351.635,224.784 352.830,215.720 353.853 C 206.638 354.879,186.786 354.262,176.624 352.639 C 175.261 352.421,174.073 352.316,173.984 352.405 C 173.781 352.607,178.311 353.409,179.659 353.409 C 180.430 353.409,180.604 353.551,180.419 354.032 C 180.273 354.413,180.452 354.854,180.882 355.168 C 181.488 355.612,181.499 355.682,180.962 355.682 C 180.620 355.682,180.165 355.980,179.950 356.345 C 179.681 356.801,179.469 356.875,179.268 356.581 C 179.102 356.337,177.758 356.131,176.136 356.101 C 174.574 356.071,171.784 355.786,169.937 355.466 C 168.090 355.147,166.485 354.980,166.370 355.094 C 166.256 355.209,166.318 355.303,166.509 355.304 C 166.700 355.304,168.305 355.562,170.076 355.878 C 193.822 360.113,216.610 359.622,240.152 354.370 C 249.210 352.349,261.115 348.509,268.307 345.290 C 276.945 341.422,285.330 336.800,285.047 336.062 C 284.939 335.781,285.022 335.233,285.230 334.844 C 285.491 334.357,285.478 334.056,285.188 333.877 C 284.894 333.696,284.922 333.519,285.282 333.292 C 287.388 331.957,283.382 333.424,279.167 335.531 M170.644 351.894 C 171.061 352.073,171.828 352.214,172.348 352.208 L 173.295 352.197 172.348 351.894 C 171.828 351.727,171.061 351.586,170.644 351.580 L 169.886 351.568 170.644 351.894 M188.462 356.396 C 188.174 356.685,187.658 356.814,187.316 356.683 C 186.434 356.345,186.938 355.751,188.052 355.816 C 188.849 355.863,188.910 355.949,188.462 356.396 " stroke="none" fill="#ac596a" fill-rule="evenodd"></path><path id="path3" d="M323.864 72.159 C 325.206 73.513,326.389 74.621,326.493 74.621 C 326.597 74.621,325.585 73.513,324.242 72.159 C 322.900 70.805,321.717 69.697,321.613 69.697 C 321.509 69.697,322.522 70.805,323.864 72.159 M329.009 77.936 C 330.595 79.826,332.011 81.552,333.347 83.223 C 333.975 84.009,333.746 84.239,333.003 83.566 C 332.332 82.959,332.282 82.967,332.091 83.699 C 331.947 84.248,331.685 84.407,331.190 84.247 C 330.592 84.053,330.606 84.120,331.294 84.719 C 332.183 85.492,333.136 87.879,332.556 87.879 C 332.359 87.879,332.192 87.751,332.186 87.595 C 332.180 87.438,330.944 86.022,329.440 84.448 C 327.935 82.873,327.239 82.191,327.893 82.933 C 336.514 92.708,347.087 109.761,353.387 124.053 C 365.533 151.603,369.249 184.450,363.797 216.056 C 363.071 220.263,363.143 220.456,365.424 220.449 C 368.037 220.440,368.101 220.340,368.920 214.942 C 375.425 172.072,366.565 130.712,343.446 96.023 C 339.206 89.661,328.193 75.758,327.394 75.758 C 327.277 75.758,328.003 76.738,329.009 77.936 M323.864 78.528 C 323.864 78.593,324.418 79.147,325.095 79.759 L 326.326 80.871 325.213 79.640 C 324.176 78.493,323.864 78.235,323.864 78.528 M250.080 81.723 C 253.758 89.017,254.399 92.606,253.227 99.332 C 251.718 107.981,245.206 122.095,237.668 133.049 C 235.729 135.866,235.271 136.922,236.764 135.133 L 237.475 134.280 237.487 135.092 C 237.494 135.539,237.754 136.001,238.064 136.120 C 238.389 136.245,238.589 136.142,238.537 135.877 C 238.488 135.624,238.700 135.417,239.010 135.417 C 239.320 135.417,239.635 135.758,239.711 136.174 C 239.786 136.591,240.150 137.273,240.519 137.689 C 240.888 138.106,241.598 139.483,242.098 140.749 C 242.598 142.015,243.194 142.988,243.423 142.912 C 243.763 142.799,245.003 144.763,245.028 145.455 C 245.032 145.559,245.305 146.291,245.636 147.081 C 245.966 147.871,246.125 148.697,245.990 148.916 C 245.855 149.135,245.977 149.767,246.262 150.320 C 246.942 151.639,248.106 152.917,248.106 152.344 C 248.106 152.097,248.277 151.894,248.485 151.894 C 249.150 151.894,248.898 152.394,246.577 155.682 C 245.327 157.453,244.824 158.305,245.460 157.576 C 246.850 155.982,253.367 146.843,257.144 141.193 C 272.205 118.658,272.591 101.578,258.364 87.153 C 255.064 83.806,249.189 79.955,250.080 81.723 M262.784 201.782 C 263.253 201.873,264.020 201.873,264.489 201.782 C 264.957 201.692,264.574 201.618,263.636 201.618 C 262.699 201.618,262.315 201.692,262.784 201.782 M335.878 228.609 C 331.064 229.573,330.441 230.205,333.128 231.393 C 335.765 232.560,335.650 231.492,335.726 255.610 L 335.795 277.462 339.205 277.462 L 342.614 277.462 342.724 255.492 C 342.871 226.355,343.077 227.166,335.878 228.609 M308.418 244.290 C 303.856 245.970,299.377 250.516,298.314 254.545 C 298.176 255.066,298.623 254.399,299.307 253.062 C 300.524 250.683,304.051 246.591,304.883 246.591 C 305.504 246.591,305.393 247.338,304.735 247.590 C 304.422 247.710,304.167 248.046,304.167 248.336 C 304.167 248.626,303.911 248.864,303.598 248.864 C 302.977 248.864,302.830 249.452,303.368 249.785 C 303.553 249.900,304.009 249.526,304.381 248.955 C 304.753 248.384,305.325 247.707,305.653 247.450 C 306.130 247.078,306.151 246.919,305.759 246.659 C 305.356 246.393,305.356 246.262,305.759 245.930 C 307.005 244.905,314.136 243.594,314.578 244.309 C 314.732 244.558,313.946 244.697,312.374 244.697 C 310.077 244.697,309.916 244.754,309.691 245.654 C 309.405 246.792,308.337 247.934,307.229 248.285 C 306.789 248.425,306.516 248.682,306.624 248.856 C 306.731 249.029,306.521 249.094,306.156 248.999 C 305.667 248.872,305.314 249.241,304.815 250.396 C 304.321 251.542,303.977 251.902,303.539 251.734 C 303.066 251.553,302.988 251.686,303.169 252.362 C 303.295 252.834,303.401 253.539,303.404 253.929 C 303.408 254.521,303.504 254.559,303.986 254.159 C 304.492 253.740,304.555 253.924,304.494 255.643 C 304.387 258.662,303.722 258.496,316.856 258.729 C 319.534 258.777,319.983 258.856,318.949 259.099 C 318.225 259.270,317.512 259.335,317.365 259.244 C 317.218 259.153,316.991 259.252,316.860 259.464 C 316.715 259.698,317.259 259.874,318.254 259.915 C 319.152 259.952,316.608 260.082,312.602 260.206 C 303.741 260.478,303.973 260.357,304.546 264.401 C 305.096 268.276,310.030 273.774,313.064 273.894 C 313.614 273.915,313.668 273.984,313.258 274.140 C 312.945 274.259,312.564 274.544,312.411 274.773 C 312.239 275.030,312.131 274.935,312.127 274.527 C 312.123 274.062,311.818 273.864,311.111 273.864 C 309.905 273.864,309.938 273.906,312.121 275.153 C 313.703 276.057,313.751 276.128,312.784 276.132 C 312.113 276.135,311.742 276.338,311.742 276.705 C 311.742 278.508,304.594 275.784,302.401 273.145 C 300.276 270.588,299.954 270.259,300.326 271.023 C 303.960 278.482,317.980 280.489,324.813 274.527 C 327.723 271.989,327.924 269.043,325.058 270.939 C 316.961 276.298,307.324 273.169,305.099 264.460 C 304.144 260.720,303.274 260.985,316.516 260.985 L 328.132 260.985 327.953 257.270 C 327.459 247.009,318.036 240.749,308.418 244.290 M312.500 245.412 C 312.500 245.596,311.962 245.826,311.305 245.923 C 310.226 246.081,310.178 246.049,310.809 245.587 C 311.605 245.005,312.500 244.912,312.500 245.412 M317.773 247.898 C 319.889 249.233,321.019 251.744,321.021 255.114 L 321.023 257.765 313.068 257.765 L 305.114 257.765 305.159 255.867 C 305.327 248.829,312.286 244.434,317.773 247.898 M289.507 250.000 C 289.507 251.146,289.578 251.615,289.665 251.042 C 289.752 250.469,289.752 249.531,289.665 248.958 C 289.578 248.385,289.507 248.854,289.507 250.000 M297.588 256.852 C 297.456 257.511,297.375 259.264,297.407 260.748 C 297.462 263.326,297.477 263.277,297.733 259.659 C 298.018 255.648,297.979 254.897,297.588 256.852 M307.815 259.550 C 308.075 259.971,309.001 259.921,309.279 259.472 C 309.413 259.255,309.113 259.129,308.571 259.174 C 308.054 259.217,307.713 259.386,307.815 259.550 M326.515 271.361 C 326.515 271.651,326.256 271.988,325.938 272.110 C 325.468 272.291,325.435 272.193,325.762 271.582 C 326.232 270.704,326.515 270.621,326.515 271.361 M319.296 275.216 C 318.835 275.771,319.236 276.144,319.986 275.857 C 320.377 275.706,320.486 275.780,320.305 276.072 C 319.938 276.666,318.536 276.641,318.655 276.042 C 318.709 275.775,318.294 275.516,317.708 275.448 C 316.135 275.267,316.460 274.793,318.157 274.793 C 319.209 274.793,319.544 274.917,319.296 275.216 M315.210 309.188 C 306.435 317.724,294.798 326.574,284.598 332.469 L 283.144 333.310 284.470 333.100 C 285.373 332.958,285.632 333.007,285.282 333.254 C 284.921 333.509,284.893 333.695,285.188 333.877 C 285.478 334.056,285.491 334.357,285.230 334.844 C 285.022 335.233,284.939 335.781,285.047 336.062 C 285.173 336.390,284.362 337.079,282.773 337.993 C 278.869 340.238,279.897 340.010,284.375 337.637 C 298.188 330.317,313.275 318.883,323.827 307.736 C 327.592 303.758,327.592 303.788,323.828 303.788 L 320.761 303.788 315.210 309.188 M281.345 334.117 C 280.563 334.529,279.924 334.951,279.924 335.055 C 279.924 335.158,280.606 334.895,281.439 334.470 C 282.273 334.045,282.955 333.615,282.955 333.515 C 282.955 333.267,282.952 333.268,281.345 334.117 M277.936 340.556 C 277.154 340.969,276.515 341.391,276.515 341.494 C 276.515 341.663,279.507 340.265,279.893 339.916 C 280.329 339.521,279.191 339.893,277.936 340.556 " stroke="none" fill="#dd9e53" fill-rule="evenodd"></path><path id="path4" d="M191.477 20.291 C 183.108 20.879,172.204 22.390,165.720 23.859 C 153.609 26.602,143.713 29.668,135.606 33.188 C 134.877 33.504,133.939 33.905,133.523 34.078 C 92.234 51.221,59.123 86.169,41.458 131.250 C 38.188 139.595,34.909 153.074,32.982 166.098 C 30.865 180.403,31.477 205.960,34.227 218.105 L 34.716 220.265 37.111 220.379 C 40.177 220.526,40.271 220.401,39.631 217.020 C 36.898 202.583,36.438 178.547,38.638 165.152 C 40.912 151.310,42.806 143.699,46.463 133.712 C 52.884 116.177,63.419 97.883,74.598 84.855 C 75.756 83.505,77.288 81.715,78.000 80.878 C 84.401 73.361,98.764 60.667,108.009 54.356 C 143.941 29.828,186.244 20.627,229.924 27.839 C 236.143 28.866,240.806 29.920,247.538 31.821 C 281.140 41.312,313.355 63.444,333.796 91.081 C 338.430 97.346,339.053 98.087,336.517 94.318 C 327.748 81.284,315.974 69.233,300.534 57.486 C 280.700 42.395,254.643 31.495,227.462 26.919 C 212.899 24.467,189.753 24.475,175.379 26.936 C 139.514 33.079,109.586 48.392,84.440 73.469 C 60.567 97.276,45.514 125.846,39.028 159.659 C 36.132 174.761,35.857 194.665,38.313 211.553 C 38.737 214.470,39.177 217.590,39.290 218.486 L 39.497 220.117 37.281 220.002 C 34.723 219.869,34.956 220.323,33.919 213.447 C 20.780 126.353,77.742 43.740,164.015 24.768 C 199.787 16.901,238.367 20.514,269.508 34.647 C 270.549 35.120,272.339 35.903,273.485 36.389 C 293.080 44.689,316.368 62.393,331.786 80.710 C 333.991 83.330,336.360 86.143,337.049 86.960 C 337.738 87.778,337.485 87.339,336.486 85.985 C 312.066 52.879,268.803 27.730,226.136 21.836 C 223.741 21.505,220.417 21.046,218.750 20.816 C 215.828 20.412,195.353 20.018,191.477 20.291 M228.788 76.704 C 227.434 76.977,225.559 77.483,224.621 77.830 C 223.684 78.176,222.581 78.563,222.170 78.690 C 220.908 79.079,213.971 82.569,211.269 84.174 C 208.658 85.725,208.277 86.289,209.280 87.121 C 209.593 87.381,209.848 87.746,209.848 87.933 C 209.848 88.120,210.260 88.925,210.763 89.721 C 213.381 93.868,218.841 105.266,218.661 106.208 C 218.460 107.260,217.991 107.506,217.675 106.723 C 217.530 106.364,217.477 106.361,217.454 106.712 C 217.421 107.226,216.288 106.929,216.288 106.406 C 216.288 106.223,215.645 105.006,214.860 103.700 C 214.074 102.394,213.094 100.644,212.682 99.811 C 212.269 98.977,211.804 98.239,211.648 98.169 C 211.491 98.100,211.364 97.860,211.364 97.636 C 211.364 97.076,207.791 91.469,206.142 89.440 C 203.699 86.434,199.379 83.637,195.265 82.397 C 192.910 81.687,178.030 81.547,178.030 82.234 C 178.030 82.463,178.653 83.784,179.415 85.170 C 180.177 86.556,181.439 88.903,182.220 90.386 C 183.002 91.869,184.432 94.477,185.399 96.180 C 186.365 97.884,188.656 102.210,190.489 105.794 C 192.322 109.378,194.274 113.120,194.827 114.110 C 195.381 115.099,196.284 116.719,196.835 117.708 C 197.935 119.685,201.681 127.126,202.032 128.030 C 202.153 128.343,202.937 129.792,203.774 131.250 C 206.587 136.152,207.333 137.952,206.863 138.705 C 206.226 139.726,206.347 140.147,207.292 140.193 C 210.467 140.348,203.482 140.852,195.265 141.061 C 185.824 141.302,182.221 141.680,175.189 143.171 C 172.780 143.682,167.038 145.372,166.275 145.794 C 165.956 145.971,165.146 146.236,164.476 146.383 C 163.806 146.531,163.258 146.808,163.258 147.000 C 163.258 147.192,162.955 147.348,162.586 147.348 C 160.350 147.348,150.407 155.404,147.012 159.966 C 137.576 172.646,140.224 189.509,153.509 201.336 C 157.155 204.582,161.472 206.791,159.932 204.622 C 157.761 201.565,156.735 197.539,156.777 192.236 C 156.812 187.833,157.768 182.894,158.453 183.579 C 158.595 183.722,158.712 183.441,158.712 182.955 C 158.712 182.468,158.810 182.169,158.930 182.289 C 159.433 182.791,161.701 180.035,161.480 179.191 C 161.327 178.607,161.420 178.374,161.786 178.426 C 163.216 178.625,163.505 178.411,163.338 177.273 C 163.212 176.411,163.319 176.136,163.783 176.136 C 164.119 176.136,164.394 175.982,164.394 175.793 C 164.394 175.604,164.053 175.539,163.636 175.648 C 162.672 175.900,162.677 175.564,163.653 174.516 C 164.302 173.819,164.483 173.774,164.769 174.237 C 164.957 174.540,165.242 174.656,165.404 174.495 C 165.566 174.333,165.447 174.043,165.141 173.850 C 164.682 173.561,164.785 173.326,165.720 172.523 C 166.345 171.985,167.241 171.215,167.711 170.811 C 168.182 170.407,168.667 170.076,168.790 170.076 C 168.914 170.076,169.617 169.790,170.353 169.440 C 171.621 168.839,171.719 168.841,172.192 169.488 C 172.530 169.951,172.910 170.079,173.372 169.884 C 173.747 169.727,174.820 169.582,175.758 169.561 C 176.695 169.541,177.697 169.298,177.984 169.021 C 178.272 168.744,178.740 168.607,179.026 168.716 C 179.312 168.826,179.545 168.732,179.545 168.508 C 179.545 168.274,179.910 168.190,180.398 168.312 C 180.917 168.441,181.607 168.253,182.165 167.830 L 183.081 167.137 182.239 166.869 C 178.717 165.751,188.414 164.199,198.864 164.209 C 204.645 164.214,207.246 164.584,206.949 165.358 C 206.833 165.658,207.012 166.007,207.347 166.136 C 208.493 166.575,207.612 167.644,201.284 173.491 C 185.478 188.096,171.214 192.175,163.550 184.280 C 161.804 182.482,161.689 182.424,161.254 183.144 C 159.656 185.791,158.865 195.304,160.024 197.945 C 162.384 203.327,165.863 208.333,167.242 208.333 C 167.516 208.333,167.797 208.461,167.866 208.617 C 168.038 209.003,170.727 210.227,171.402 210.227 C 171.742 210.227,171.860 210.452,171.716 210.826 C 171.578 211.185,171.204 211.351,170.781 211.240 C 170.393 211.139,170.076 211.210,170.076 211.399 C 170.076 211.588,170.407 211.742,170.811 211.742 C 171.215 211.742,171.638 211.890,171.750 212.071 C 172.292 212.949,176.533 213.148,181.061 212.509 C 182.623 212.288,184.498 212.042,185.227 211.960 C 186.466 211.823,188.068 211.489,188.068 211.368 C 188.068 211.339,188.642 211.259,189.343 211.191 C 191.644 210.966,194.202 209.591,194.892 208.208 C 195.584 206.820,195.590 206.906,194.792 206.715 C 194.177 206.568,194.181 206.534,194.834 206.252 C 195.289 206.055,195.918 206.171,196.607 206.578 C 197.620 207.176,197.702 207.172,198.181 206.488 C 198.459 206.091,199.280 205.518,200.006 205.214 C 201.767 204.478,202.508 203.581,201.931 202.885 C 201.595 202.481,201.628 202.310,202.074 202.139 C 202.391 202.017,202.652 202.083,202.652 202.285 C 202.652 202.486,202.822 202.652,203.030 202.652 C 203.239 202.652,203.409 202.311,203.409 201.894 C 203.409 201.477,203.590 201.136,203.810 201.136 C 204.031 201.136,204.106 201.307,203.977 201.515 C 203.661 202.027,204.667 201.999,205.185 201.482 C 205.452 201.215,205.678 201.203,205.829 201.447 C 206.153 201.971,207.576 201.539,207.576 200.916 C 207.576 200.204,209.696 198.106,210.416 198.106 C 210.742 198.106,211.107 197.850,211.227 197.538 C 211.347 197.225,211.595 196.970,211.779 196.970 C 212.124 196.970,212.946 196.334,214.719 194.697 C 215.283 194.176,216.214 193.409,216.788 192.992 C 217.780 192.273,219.451 190.170,218.626 190.679 C 217.950 191.097,217.655 190.060,218.313 189.579 C 218.658 189.327,218.939 189.012,218.939 188.879 C 218.939 188.231,220.468 187.196,221.158 187.376 C 221.664 187.508,222.082 187.310,222.413 186.780 C 222.686 186.343,223.189 185.985,223.530 185.985 C 224.846 185.985,226.894 184.842,226.894 184.108 C 226.894 183.707,227.064 183.273,227.273 183.144 C 227.481 183.015,227.652 183.090,227.652 183.311 C 227.652 183.532,227.843 183.712,228.078 183.712 C 228.346 183.712,228.422 183.304,228.283 182.609 C 228.106 181.722,228.243 181.387,228.980 180.904 C 230.162 180.130,230.303 180.146,230.303 181.061 C 230.303 181.477,230.439 181.818,230.606 181.818 C 231.239 181.818,231.910 184.471,231.424 185.056 C 231.051 185.506,231.107 185.606,231.729 185.606 C 232.476 185.606,234.634 188.765,236.515 192.614 C 236.923 193.447,238.753 195.624,240.583 197.451 C 242.571 199.437,243.829 200.983,243.710 201.294 C 243.494 201.857,245.465 203.030,246.627 203.030 C 246.999 203.030,247.396 203.179,247.509 203.362 C 247.788 203.814,249.580 203.782,249.866 203.319 C 249.993 203.114,249.862 202.797,249.575 202.615 C 249.268 202.421,252.451 202.282,257.292 202.279 L 265.530 202.273 265.486 201.420 C 265.450 200.717,265.411 200.691,265.261 201.273 C 264.969 202.409,250.025 202.020,246.878 200.794 C 241.203 198.585,238.574 195.392,231.836 182.521 L 230.915 180.762 233.043 178.544 C 234.985 176.518,241.964 168.294,244.369 165.196 C 245.498 163.740,245.854 163.822,246.767 165.744 C 247.647 167.600,247.887 167.178,247.064 165.223 C 245.900 162.461,245.290 162.637,242.322 166.594 C 237.609 172.878,236.208 174.027,235.887 171.875 C 235.690 170.558,237.220 167.827,238.163 167.811 C 238.423 167.807,238.636 167.633,238.636 167.424 C 238.636 166.358,240.411 165.265,240.634 166.193 C 240.753 166.687,240.943 166.524,241.379 165.550 C 241.701 164.832,241.884 164.035,241.786 163.779 C 241.666 163.467,241.868 163.381,242.394 163.519 C 243.003 163.678,243.182 163.548,243.182 162.945 C 243.182 162.517,243.355 162.059,243.567 161.928 C 243.779 161.797,243.854 161.531,243.734 161.337 C 243.614 161.144,243.782 160.985,244.106 160.985 C 244.431 160.985,244.697 160.741,244.697 160.443 C 244.697 160.145,245.080 159.843,245.549 159.771 C 246.018 159.700,246.359 159.432,246.307 159.177 C 246.255 158.921,246.383 158.712,246.591 158.712 C 246.799 158.712,246.970 158.385,246.970 157.986 C 246.970 157.587,247.099 157.203,247.257 157.134 C 247.902 156.850,249.878 153.943,249.724 153.504 C 249.633 153.243,249.743 153.030,249.968 153.030 C 250.194 153.030,250.379 152.853,250.379 152.637 C 250.379 152.267,256.657 142.832,257.175 142.424 C 259.126 140.887,266.718 125.315,267.610 121.023 C 267.740 120.398,267.156 121.659,266.313 123.825 C 264.320 128.945,260.512 136.155,257.120 141.225 C 253.144 147.171,247.631 154.898,245.031 158.170 C 242.697 161.107,242.425 161.437,239.905 164.410 C 239.103 165.356,237.680 167.047,236.742 168.169 C 229.914 176.334,227.555 178.943,221.987 184.485 C 202.902 203.479,185.020 212.674,172.618 209.870 C 163.121 207.723,157.992 197.408,160.788 186.080 C 161.583 182.860,161.410 182.949,163.285 184.787 C 172.027 193.357,186.618 188.339,205.652 170.217 C 219.556 156.980,235.310 137.966,241.627 126.799 C 243.613 123.287,242.723 124.299,240.298 128.309 C 236.196 135.091,227.846 145.629,226.492 145.731 C 225.280 145.822,224.713 146.486,224.865 147.635 C 224.941 148.207,224.895 148.419,224.763 148.106 C 224.631 147.794,224.265 147.243,223.951 146.882 C 223.462 146.320,223.455 146.131,223.906 145.561 C 224.195 145.196,224.567 144.724,224.733 144.513 C 226.293 142.521,231.061 135.758,231.061 135.536 C 231.061 135.378,228.333 129.876,225.000 123.307 C 218.917 111.321,218.538 110.427,219.413 110.129 C 219.783 110.002,219.791 109.707,219.446 108.771 C 219.203 108.114,219.147 107.576,219.320 107.576 C 219.492 107.576,219.691 107.741,219.760 107.944 C 219.936 108.456,222.943 107.352,222.816 106.822 C 222.761 106.592,222.955 106.454,223.249 106.516 C 223.542 106.578,224.219 106.160,224.752 105.587 C 225.730 104.536,226.515 104.236,226.515 104.912 C 226.515 105.114,226.789 105.174,227.125 105.045 C 227.685 104.830,227.685 104.784,227.125 104.470 C 226.789 104.283,226.515 103.872,226.515 103.557 C 226.515 103.243,226.686 103.091,226.894 103.220 C 227.589 103.649,228.060 103.036,227.639 102.250 C 227.330 101.671,227.370 101.515,227.828 101.515 C 228.147 101.515,228.409 101.686,228.409 101.894 C 228.409 102.102,228.649 102.273,228.942 102.273 C 229.280 102.273,229.405 102.008,229.285 101.547 C 229.131 100.958,229.581 100.591,231.688 99.589 C 237.062 97.035,244.026 98.107,246.710 101.902 C 248.137 103.918,248.683 103.817,249.299 101.420 C 249.935 98.948,249.932 90.728,249.295 89.394 L 248.842 88.447 249.053 89.394 C 249.584 91.782,249.697 97.025,249.265 99.311 C 248.579 102.949,248.469 103.007,246.417 100.814 C 241.391 95.440,231.558 96.962,221.479 104.673 C 220.688 105.278,219.983 105.710,219.913 105.633 C 219.843 105.556,218.892 103.788,217.799 101.705 C 213.424 93.361,211.939 90.633,210.732 88.724 C 209.053 86.069,209.075 85.995,212.024 84.264 C 220.272 79.424,226.653 77.107,233.333 76.527 L 236.553 76.248 233.902 76.228 C 232.443 76.217,230.142 76.431,228.788 76.704 M238.149 77.032 C 242.313 78.419,245.475 81.357,247.579 85.795 C 248.271 87.254,248.843 88.185,248.850 87.864 C 248.928 84.503,241.748 77.130,237.948 76.669 L 236.553 76.500 238.149 77.032 M196.511 83.250 C 203.171 85.865,206.374 89.304,211.936 99.811 C 212.928 101.686,214.035 103.731,214.395 104.356 C 215.719 106.654,220.504 115.663,224.052 122.538 C 225.664 125.663,227.843 129.819,228.892 131.774 C 230.588 134.931,230.746 135.417,230.310 136.130 C 228.484 139.112,217.102 152.763,210.342 160.077 L 206.806 163.903 200.428 163.719 C 187.177 163.336,176.605 165.185,169.400 169.146 C 157.631 175.615,152.477 191.513,158.384 203.125 C 159.252 204.833,159.122 204.865,157.076 203.451 C 140.998 192.341,137.216 172.023,148.718 158.543 C 158.584 146.979,172.044 142.267,196.887 141.680 C 203.612 141.521,209.231 141.274,209.373 141.132 C 209.515 140.990,208.517 138.708,207.155 136.062 C 202.634 127.279,198.777 119.930,196.779 116.288 C 195.693 114.309,193.818 110.814,192.613 108.523 C 188.900 101.465,187.460 98.791,185.677 95.644 C 184.732 93.977,183.365 91.506,182.639 90.152 C 181.912 88.797,180.664 86.524,179.864 85.099 C 179.064 83.674,178.409 82.421,178.409 82.315 C 178.409 81.666,194.611 82.503,196.511 83.250 M253.536 94.318 C 253.536 95.881,253.603 96.520,253.685 95.739 C 253.767 94.957,253.767 93.679,253.685 92.898 C 253.603 92.116,253.536 92.756,253.536 94.318 M342.221 94.223 C 342.805 95.109,343.355 95.833,343.443 95.833 C 343.716 95.833,342.266 93.528,341.697 93.058 C 341.401 92.814,341.637 93.338,342.221 94.223 M253.118 98.485 C 253.118 99.214,253.196 99.512,253.291 99.148 C 253.387 98.783,253.387 98.187,253.291 97.822 C 253.196 97.457,253.118 97.756,253.118 98.485 M252.097 102.178 C 250.350 108.431,248.779 112.521,245.950 118.182 C 244.232 121.619,243.093 124.091,243.418 123.674 C 245.672 120.784,252.038 105.740,252.860 101.360 C 253.257 99.241,252.772 99.761,252.097 102.178 M184.470 104.866 C 184.157 105.223,182.879 106.702,181.629 108.155 C 180.379 109.607,179.265 110.881,179.155 110.985 C 178.636 111.472,167.714 124.716,166.034 126.894 C 161.586 132.661,153.433 144.447,152.410 146.591 C 152.261 146.903,151.743 147.795,151.259 148.572 C 149.809 150.901,150.426 151.599,152.355 149.811 C 152.916 149.290,153.480 148.864,153.607 148.864 C 153.734 148.864,154.381 148.452,155.044 147.949 C 157.024 146.448,163.987 143.025,167.235 141.957 C 170.867 140.762,172.741 140.368,179.866 139.301 L 185.300 138.487 186.852 136.194 C 188.836 133.264,191.649 129.610,194.203 126.646 C 196.530 123.946,196.673 122.051,194.697 120.076 C 194.593 119.972,193.655 118.182,192.614 116.098 C 191.572 114.015,190.592 112.254,190.436 112.184 C 190.279 112.115,190.152 111.874,190.152 111.649 C 190.152 111.425,189.656 110.459,189.050 109.503 C 188.444 108.547,187.524 106.998,187.005 106.061 C 185.967 104.185,185.330 103.885,184.470 104.866 M188.369 109.564 C 192.653 117.239,195.409 122.367,195.638 123.086 C 195.777 123.527,194.652 125.192,192.145 128.257 C 190.111 130.743,187.607 134.011,186.581 135.518 C 184.812 138.115,184.640 138.258,183.267 138.258 C 175.066 138.258,162.294 142.525,154.326 147.928 L 150.670 150.406 151.890 148.215 C 155.420 141.877,164.896 128.807,173.114 118.939 C 179.394 111.399,185.203 104.654,185.492 104.568 C 185.533 104.556,186.828 106.804,188.369 109.564 M344.508 107.197 C 344.831 107.822,345.180 108.333,345.285 108.333 C 345.389 108.333,345.210 107.822,344.886 107.197 C 344.563 106.572,344.213 106.061,344.109 106.061 C 344.005 106.061,344.184 106.572,344.508 107.197 M347.727 112.879 C 348.152 113.712,348.585 114.394,348.690 114.394 C 348.794 114.394,348.531 113.712,348.106 112.879 C 347.681 112.045,347.248 111.364,347.144 111.364 C 347.040 111.364,347.302 112.045,347.727 112.879 M223.109 147.910 C 222.838 148.622,222.834 149.104,223.098 149.422 C 223.374 149.755,223.142 150.362,222.283 151.554 C 219.550 155.343,217.424 156.899,217.424 155.110 C 217.424 154.626,217.252 154.172,217.040 154.102 C 216.665 153.977,218.223 152.004,221.554 148.389 C 223.372 146.415,223.717 146.309,223.109 147.910 M248.720 169.413 C 249.272 170.507,251.766 175.322,254.260 180.114 C 256.754 184.905,260.078 191.297,261.646 194.318 C 264.240 199.316,265.698 201.790,264.882 199.811 C 264.520 198.932,261.410 192.835,259.085 188.447 C 256.587 183.729,251.559 174.000,249.846 170.567 C 248.993 168.858,248.165 167.452,248.005 167.442 C 247.845 167.432,248.167 168.319,248.720 169.413 M234.997 174.403 C 234.720 175.124,233.712 175.484,233.712 174.862 C 233.712 174.234,234.082 173.864,234.710 173.864 C 234.982 173.864,235.110 174.106,234.997 174.403 M233.333 176.295 C 233.333 176.900,232.786 177.652,232.346 177.652 C 232.056 177.652,231.818 177.992,231.818 178.409 C 231.818 178.826,231.648 179.167,231.439 179.167 C 230.904 179.167,230.969 178.549,231.639 177.254 C 232.106 176.351,233.333 175.656,233.333 176.295 M366.017 180.492 C 366.020 181.534,366.094 181.915,366.181 181.339 C 366.268 180.764,366.266 179.911,366.176 179.446 C 366.086 178.980,366.015 179.451,366.017 180.492 M370.992 187.311 C 370.992 191.477,371.048 193.233,371.115 191.213 C 371.183 189.193,371.184 185.784,371.116 183.638 C 371.048 181.491,370.993 183.144,370.992 187.311 M366.017 194.508 C 366.020 195.549,366.094 195.930,366.181 195.355 C 366.268 194.779,366.266 193.927,366.176 193.461 C 366.086 192.995,366.015 193.466,366.017 194.508 M157.873 194.322 C 157.760 195.094,157.867 195.455,158.210 195.455 C 158.490 195.455,158.712 195.046,158.712 194.530 C 158.712 193.166,158.066 193.006,157.873 194.322 M184.470 210.566 C 184.470 210.752,184.214 211.002,183.902 211.122 C 183.555 211.255,183.333 211.122,183.333 210.784 C 183.333 210.478,183.589 210.227,183.902 210.227 C 184.214 210.227,184.470 210.379,184.470 210.566 M181.728 211.245 C 181.366 211.340,180.684 211.343,180.213 211.253 C 179.742 211.162,180.038 211.085,180.871 211.080 C 181.705 211.076,182.090 211.150,181.728 211.245 M86.932 229.065 C 85.434 229.439,85.148 230.905,86.474 231.409 C 88.727 232.266,88.736 234.074,86.511 238.891 C 85.759 240.519,84.813 242.705,84.410 243.748 C 84.007 244.791,83.364 246.326,82.981 247.159 C 82.598 247.992,80.711 252.424,78.787 257.008 C 76.863 261.591,74.713 266.589,74.008 268.115 C 73.304 269.640,72.727 270.951,72.727 271.028 C 72.727 271.105,72.040 272.649,71.199 274.460 C 69.394 278.350,69.319 278.202,73.022 278.084 C 76.544 277.972,75.995 278.578,78.386 272.159 C 80.869 265.492,81.493 263.947,81.942 263.346 C 82.218 262.976,84.397 262.889,91.392 262.967 L 100.484 263.068 101.537 266.028 C 104.914 275.517,107.728 278.527,113.258 278.565 C 117.206 278.593,117.795 277.862,115.772 275.442 C 114.385 273.781,113.207 271.470,109.273 262.689 C 108.993 262.064,107.550 258.570,106.067 254.924 C 104.584 251.278,103.214 247.955,103.022 247.538 C 102.831 247.121,101.640 244.138,100.375 240.909 C 95.473 228.391,95.767 228.757,90.675 228.832 C 89.033 228.856,87.348 228.961,86.932 229.065 M94.880 230.074 C 95.855 230.713,96.402 231.836,98.869 238.258 C 100.758 243.172,102.144 246.604,107.177 258.830 C 110.560 267.046,113.825 273.743,115.363 275.620 C 117.087 277.724,116.850 278.032,113.519 278.022 C 107.646 278.004,105.570 275.759,101.702 265.246 L 100.691 262.500 91.301 262.500 C 84.230 262.500,81.824 262.617,81.558 262.973 C 81.116 263.565,80.511 265.066,77.931 271.970 L 75.878 277.462 73.166 277.573 C 71.675 277.635,70.455 277.593,70.455 277.481 C 70.455 277.296,75.137 266.559,76.988 262.500 C 77.416 261.563,78.572 258.835,79.557 256.439 C 80.542 254.044,82.988 248.227,84.992 243.513 C 89.127 233.790,89.539 231.061,86.873 231.061 C 86.593 231.061,86.364 230.729,86.364 230.324 C 86.364 229.185,93.216 228.984,94.880 230.074 M334.711 232.765 C 335.587 234.261,335.606 234.283,335.606 233.817 C 335.606 233.597,335.255 233.015,334.826 232.523 L 334.046 231.629 334.711 232.765 M87.357 248.201 C 82.641 260.019,82.149 258.712,91.318 258.712 L 98.924 258.712 98.654 257.486 C 98.506 256.811,97.993 255.320,97.514 254.171 C 96.618 252.025,93.686 244.536,92.359 241.004 C 91.306 238.199,91.405 238.056,87.357 248.201 M93.700 245.739 C 96.897 253.985,97.000 254.248,97.576 255.600 C 98.409 257.554,98.274 257.829,96.349 258.092 C 93.893 258.429,84.094 258.395,84.078 258.049 C 84.056 257.538,91.081 240.152,91.310 240.152 C 91.433 240.152,92.508 242.666,93.700 245.739 M122.037 243.757 C 117.415 244.884,115.932 246.499,118.918 247.154 C 121.037 247.620,121.007 247.413,121.212 263.221 L 121.402 277.841 125.284 277.949 L 129.167 278.057 129.167 266.819 C 129.167 254.327,129.309 253.336,131.389 251.315 C 135.486 247.336,142.012 248.503,143.706 253.517 C 144.216 255.026,144.318 257.228,144.318 266.680 L 144.318 278.030 148.106 278.030 L 151.894 278.030 151.896 266.951 C 151.897 260.388,152.060 255.288,152.296 254.440 C 153.490 250.139,158.717 247.748,162.942 249.572 C 166.804 251.239,167.008 252.080,167.029 266.383 L 167.045 278.030 170.793 278.030 C 175.431 278.030,175.001 279.263,174.993 265.973 C 174.986 254.093,174.651 251.221,172.928 248.280 C 168.943 241.482,158.093 241.254,152.228 247.846 L 150.858 249.386 149.875 247.829 C 146.238 242.068,136.896 241.427,131.330 246.558 C 129.481 248.262,129.167 248.399,129.167 247.500 C 129.167 246.165,127.875 244.215,126.651 243.703 C 125.193 243.094,124.735 243.099,122.037 243.757 M191.477 243.636 C 186.224 245.469,184.470 247.305,184.470 250.972 C 184.470 252.918,185.206 253.235,186.201 251.717 C 189.455 246.751,199.649 246.716,201.710 251.663 C 203.547 256.073,203.145 256.685,197.813 257.611 C 186.422 259.588,181.439 263.170,181.439 269.382 C 181.439 278.789,194.040 282.100,201.917 274.762 L 202.888 273.858 203.716 275.332 C 205.113 277.817,207.211 278.687,210.663 278.212 C 213.958 277.759,215.325 275.143,212.560 274.581 C 210.110 274.083,209.726 272.327,210.084 263.253 C 210.576 250.794,208.508 245.557,202.423 243.849 C 200.431 243.290,192.891 243.143,191.477 243.636 M234.028 243.927 C 231.860 244.752,230.378 245.785,228.832 247.545 L 227.652 248.890 227.652 247.892 C 227.652 244.787,225.471 243.278,221.654 243.743 C 217.007 244.308,215.016 246.070,217.615 247.316 C 219.984 248.451,219.869 247.697,220.076 263.419 L 220.265 277.841 223.958 277.949 L 227.652 278.058 227.660 266.586 C 227.667 256.275,227.739 254.959,228.364 253.583 C 230.949 247.891,239.485 247.207,242.368 252.461 C 242.899 253.428,243.021 255.419,243.182 265.720 L 243.371 277.841 247.083 277.950 L 250.794 278.058 250.681 264.692 C 250.555 249.818,250.528 249.650,247.756 246.492 C 244.997 243.350,238.656 242.165,234.028 243.927 M312.027 243.459 C 312.912 243.539,314.361 243.539,315.246 243.459 C 316.132 243.379,315.407 243.314,313.636 243.314 C 311.866 243.314,311.141 243.379,312.027 243.459 M144.837 244.332 C 146.962 245.127,149.664 247.586,150.172 249.187 C 150.534 250.329,150.786 250.228,152.413 248.280 C 157.803 241.833,168.366 241.941,172.518 248.485 C 174.059 250.913,174.242 252.729,174.242 265.523 L 174.242 277.681 170.928 277.572 L 167.614 277.462 167.549 266.251 C 167.508 259.034,167.326 254.450,167.038 253.382 C 165.610 248.077,157.396 246.693,153.663 251.128 C 151.581 253.603,151.515 254.068,151.515 266.349 L 151.515 277.681 148.201 277.572 L 144.886 277.462 144.697 265.720 C 144.539 255.953,144.404 253.754,143.891 252.652 C 141.406 247.305,133.931 247.047,130.018 252.174 L 128.977 253.538 128.788 265.500 L 128.598 277.462 125.189 277.462 L 121.780 277.462 121.780 263.203 C 121.780 247.218,121.910 247.972,118.947 246.724 C 117.397 246.072,117.871 245.422,120.437 244.681 C 125.708 243.158,128.782 244.314,128.786 247.822 C 128.788 249.044,129.697 249.239,130.283 248.143 C 132.239 244.489,139.897 242.484,144.837 244.332 M201.872 244.282 C 208.349 246.298,209.470 248.946,209.470 262.242 C 209.470 273.546,209.796 275.000,212.337 275.000 C 214.753 275.000,213.706 276.999,210.944 277.661 C 207.572 278.470,204.431 276.862,203.292 273.744 C 203.107 273.239,202.991 273.303,200.150 275.464 C 196.885 277.948,190.771 278.923,187.419 277.495 C 180.738 274.647,179.914 266.030,185.937 261.985 C 188.573 260.214,197.791 257.576,201.340 257.576 C 203.246 257.576,203.506 254.278,201.868 250.893 C 199.737 246.491,191.173 246.219,186.973 250.419 C 184.752 252.639,184.848 252.620,184.849 250.852 C 184.851 245.304,193.915 241.805,201.872 244.282 M244.610 244.639 C 249.802 247.332,250.167 248.627,250.179 264.394 L 250.189 277.462 246.970 277.462 L 243.750 277.462 243.561 265.530 C 243.390 254.786,243.299 253.454,242.649 252.144 C 240.141 247.093,231.592 247.335,228.350 252.549 C 227.481 253.947,227.458 254.222,227.273 265.714 L 227.083 277.451 223.769 277.569 L 220.455 277.687 220.455 263.494 L 220.455 249.301 219.474 248.135 C 218.935 247.494,218.178 246.970,217.792 246.970 C 217.406 246.970,216.975 246.783,216.834 246.555 C 215.878 245.009,223.026 243.291,225.371 244.503 C 226.496 245.085,226.660 245.406,227.067 247.822 C 227.347 249.481,227.772 249.609,228.633 248.296 C 231.342 244.162,239.911 242.200,244.610 244.639 M259.659 243.962 C 255.833 244.882,254.788 246.359,257.472 247.051 C 259.551 247.586,259.641 248.063,259.850 259.659 C 260.041 270.253,260.043 270.268,261.070 272.362 C 262.554 275.386,265.831 278.063,267.987 278.013 C 268.407 278.003,267.912 277.667,266.887 277.267 C 261.379 275.117,260.465 272.632,260.227 259.152 L 260.038 248.418 258.975 247.504 C 258.391 247.002,257.581 246.591,257.176 246.591 C 256.259 246.591,256.206 245.629,257.102 245.270 C 260.170 244.043,263.719 243.648,265.281 244.360 C 266.919 245.106,267.027 245.853,267.133 257.197 C 267.234 267.886,267.244 268.009,268.167 269.621 C 271.111 274.761,279.686 274.016,282.238 268.398 C 282.868 267.010,282.939 265.730,282.946 255.587 L 282.955 244.318 286.174 244.318 L 289.394 244.318 289.428 245.549 C 289.446 246.226,289.497 252.576,289.540 259.659 C 289.630 274.473,289.729 274.979,292.545 274.994 C 294.281 275.004,293.796 276.562,291.856 277.208 C 288.259 278.406,284.763 277.168,283.706 274.323 C 282.890 272.128,282.791 272.108,281.239 273.826 C 279.172 276.114,275.688 277.689,271.876 278.057 L 268.750 278.359 272.070 278.236 C 275.982 278.091,278.577 277.033,280.907 274.632 C 282.396 273.098,283.333 273.096,283.333 274.628 C 283.333 277.433,290.222 279.112,293.342 277.068 C 294.856 276.076,294.542 274.845,292.737 274.695 C 290.302 274.492,290.360 274.849,290.152 258.749 L 289.962 244.129 286.269 244.020 L 282.576 243.912 282.576 254.818 C 282.576 270.068,281.473 272.519,274.621 272.496 C 268.297 272.474,267.447 270.501,267.434 255.798 C 267.424 245.936,267.419 245.869,266.534 244.841 C 265.524 243.667,262.496 243.279,259.659 243.962 M307.292 244.330 C 306.023 244.840,306.260 245.099,307.576 244.640 C 308.201 244.422,308.712 244.176,308.712 244.092 C 308.712 243.867,308.251 243.944,307.292 244.330 M319.729 244.439 C 320.331 244.901,322.727 246.152,322.727 246.004 C 322.727 245.751,320.343 244.321,319.918 244.320 C 319.727 244.319,319.642 244.373,319.729 244.439 M303.719 246.500 C 301.853 247.990,299.909 250.251,299.016 251.970 C 298.032 253.864,298.474 253.543,299.951 251.290 C 301.399 249.082,303.467 246.919,305.293 245.700 C 305.808 245.357,306.063 245.078,305.861 245.080 C 305.658 245.082,304.694 245.721,303.719 246.500 M323.106 246.331 C 323.106 246.396,323.660 246.950,324.337 247.562 L 325.568 248.674 324.456 247.443 C 323.419 246.296,323.106 246.038,323.106 246.331 M312.789 246.859 C 313.260 246.949,313.942 246.946,314.304 246.851 C 314.666 246.756,314.280 246.682,313.447 246.686 C 312.614 246.691,312.317 246.768,312.789 246.859 M307.809 249.244 C 307.056 250.077,306.439 250.879,306.439 251.024 C 306.439 251.169,306.568 251.126,306.725 250.928 C 306.881 250.730,307.597 249.929,308.314 249.148 C 309.031 248.366,309.519 247.727,309.399 247.727 C 309.278 247.727,308.563 248.410,307.809 249.244 M318.052 248.365 C 318.501 248.743,319.225 249.650,319.660 250.379 C 320.095 251.108,320.452 251.554,320.453 251.370 C 320.456 250.679,318.840 248.460,318.053 248.076 L 317.235 247.676 318.052 248.365 M335.752 255.682 C 335.752 258.286,335.813 259.351,335.887 258.049 C 335.960 256.747,335.960 254.616,335.887 253.314 C 335.813 252.012,335.752 253.078,335.752 255.682 M305.724 252.694 C 305.491 253.363,305.366 253.977,305.447 254.058 C 305.528 254.139,305.785 253.658,306.019 252.988 C 306.252 252.319,306.377 251.705,306.296 251.624 C 306.214 251.543,305.957 252.024,305.724 252.694 M320.903 255.192 L 320.833 257.543 318.087 257.673 L 315.341 257.804 318.099 257.879 C 321.272 257.966,321.324 257.914,321.114 254.879 L 320.973 252.841 320.903 255.192 M297.771 254.961 C 297.539 255.628,297.360 256.447,297.374 256.780 C 297.388 257.114,297.636 256.626,297.926 255.697 C 298.532 253.752,298.404 253.145,297.771 254.961 M305.068 256.250 L 305.114 257.765 309.376 257.785 L 313.638 257.804 309.493 257.678 L 305.347 257.551 305.185 256.143 L 305.023 254.735 305.068 256.250 M328.160 258.144 C 328.162 259.811,328.228 260.445,328.308 259.554 C 328.388 258.663,328.387 257.300,328.306 256.524 C 328.224 255.748,328.159 256.477,328.160 258.144 M297.087 260.417 C 297.089 261.667,297.160 262.132,297.244 261.452 C 297.329 260.771,297.327 259.748,297.240 259.179 C 297.154 258.610,297.085 259.167,297.087 260.417 M197.159 260.964 C 192.228 262.219,190.439 263.301,189.358 265.682 C 187.263 270.295,189.584 274.063,194.508 274.042 C 200.773 274.015,203.309 270.724,202.961 263.068 L 202.841 260.417 201.326 260.353 C 200.492 260.317,198.617 260.592,197.159 260.964 M202.574 261.269 C 203.140 269.007,200.863 273.005,195.544 273.615 C 186.503 274.651,186.917 264.422,196.023 261.797 C 200.468 260.515,202.507 260.351,202.574 261.269 M304.713 261.475 C 304.609 261.744,304.691 262.639,304.894 263.463 L 305.263 264.962 305.188 263.258 L 305.114 261.553 316.477 261.355 L 327.841 261.157 316.371 261.071 C 307.280 261.003,304.861 261.086,304.713 261.475 M297.370 263.852 C 297.340 264.925,298.462 268.663,298.954 269.129 C 299.232 269.392,299.261 269.277,299.049 268.750 C 298.881 268.333,298.440 266.884,298.068 265.530 C 297.696 264.176,297.382 263.421,297.370 263.852 M305.533 265.909 C 305.767 266.903,307.436 269.697,307.796 269.697 C 307.912 269.697,307.670 269.225,307.260 268.649 C 306.850 268.073,306.243 267.007,305.912 266.282 C 305.524 265.429,305.390 265.297,305.533 265.909 M299.827 270.761 C 301.009 273.253,305.678 277.269,307.386 277.265 C 307.595 277.264,306.742 276.696,305.492 276.003 C 303.475 274.883,301.454 272.866,299.711 270.231 C 299.447 269.833,299.499 270.072,299.827 270.761 M324.527 270.745 C 323.746 271.280,323.176 271.787,323.261 271.872 C 323.346 271.957,324.126 271.556,324.995 270.981 C 326.306 270.114,326.632 270.029,326.917 270.480 C 327.199 270.925,327.262 270.904,327.267 270.360 C 327.275 269.435,326.224 269.582,324.527 270.745 M326.894 271.716 C 326.894 272.063,326.262 273.071,325.489 273.957 L 324.085 275.568 325.487 274.266 C 326.872 272.978,327.553 271.745,327.118 271.310 C 326.995 271.187,326.894 271.369,326.894 271.716 M315.067 273.384 C 315.958 273.464,317.321 273.463,318.097 273.381 C 318.873 273.300,318.144 273.235,316.477 273.236 C 314.811 273.237,314.176 273.304,315.067 273.384 M321.212 276.705 C 320.691 277.002,320.436 277.246,320.644 277.246 C 320.852 277.246,321.449 277.002,321.970 276.705 C 322.491 276.407,322.746 276.163,322.538 276.163 C 322.330 276.163,321.733 276.407,321.212 276.705 M308.523 277.652 C 308.939 277.831,309.621 277.972,310.038 277.966 C 310.647 277.957,310.610 277.895,309.848 277.652 C 308.553 277.237,307.557 277.237,308.523 277.652 M335.854 277.746 C 335.951 277.902,337.458 278.030,339.205 278.030 C 340.951 278.030,342.459 277.902,342.555 277.746 C 342.652 277.590,341.144 277.462,339.205 277.462 C 337.265 277.462,335.757 277.590,335.854 277.746 M312.595 278.306 C 313.376 278.388,314.654 278.388,315.436 278.306 C 316.217 278.225,315.578 278.158,314.015 278.158 C 312.453 278.158,311.813 278.225,312.595 278.306 M75.191 303.784 C 74.120 305.519,93.687 322.792,105.303 330.366 C 113.637 335.799,120.236 339.465,128.056 343.006 C 131.063 344.367,133.864 345.643,134.280 345.841 C 140.211 348.662,157.941 354.135,166.098 355.664 C 179.897 358.249,189.272 359.191,201.326 359.204 C 223.888 359.229,244.921 355.148,266.477 346.564 C 270.846 344.825,285.058 337.961,284.806 337.712 C 284.725 337.633,281.591 339.081,277.841 340.929 C 267.452 346.048,258.519 349.439,246.402 352.863 C 219.058 360.588,185.455 360.585,156.629 352.857 C 151.820 351.567,150.160 351.060,145.050 349.321 C 120.369 340.919,96.750 326.214,79.735 308.656 L 75.568 304.356 78.735 304.245 L 81.902 304.135 87.068 309.178 C 100.682 322.467,118.630 334.200,136.174 341.280 C 137.841 341.952,139.716 342.723,140.341 342.993 C 159.608 351.317,194.132 356.291,215.720 353.853 C 231.744 352.044,237.098 350.995,250.810 346.978 C 261.210 343.932,272.931 338.919,283.432 333.027 C 287.979 330.475,296.212 325.185,296.212 324.815 C 296.212 324.722,294.267 325.914,291.890 327.464 C 280.276 335.036,264.997 342.220,252.462 346.000 C 250.587 346.566,248.627 347.170,248.106 347.344 C 247.585 347.517,245.455 348.095,243.371 348.629 C 187.246 363.007,125.786 346.994,86.066 307.644 L 81.791 303.409 78.607 303.409 C 76.856 303.409,75.319 303.578,75.191 303.784 M322.443 303.685 C 323.224 303.767,324.503 303.767,325.284 303.685 C 326.065 303.603,325.426 303.536,323.864 303.536 C 322.301 303.536,321.662 303.603,322.443 303.685 M311.722 312.405 L 310.417 313.826 311.837 312.520 C 312.618 311.802,313.258 311.163,313.258 311.100 C 313.258 310.811,312.937 311.083,311.722 312.405 M316.267 315.057 L 314.962 316.477 316.383 315.172 C 317.164 314.454,317.803 313.815,317.803 313.751 C 317.803 313.462,317.482 313.735,316.267 315.057 M297.960 329.352 C 296.943 330.056,295.920 330.838,295.688 331.089 C 295.455 331.340,296.330 330.834,297.633 329.963 C 298.935 329.093,300.000 328.302,300.000 328.206 C 300.000 327.946,299.965 327.966,297.960 329.352 M286.648 336.389 C 285.866 336.802,285.227 337.224,285.227 337.327 C 285.227 337.431,285.909 337.168,286.742 336.742 C 287.576 336.317,288.258 335.888,288.258 335.788 C 288.258 335.540,288.255 335.541,286.648 336.389 " stroke="none" fill="#a9a2bb" fill-rule="evenodd"></path></g></svg>